<svg width="375" height="949" viewBox="0 0 375 949" fill="none" xmlns="http://www.w3.org/2000/svg">
<path d="M220.161 36.6005C308.312 15.8846 386.015 42.6934 409.685 49.2941L391 778L-29 790.5L-10.4998 29.9997C34.8815 49.8018 132.01 57.3165 220.161 36.6005Z" fill="#4390ED"/>
<path d="M220.161 36.6005C308.312 15.8846 386.015 42.6934 409.685 49.2941L391 778L-29 790.5L-10.4998 29.9997C34.8815 49.8018 132.01 57.3165 220.161 36.6005Z" fill="url(#paint0_linear)" fill-opacity="0.8"/>
<ellipse cx="99.5" cy="42.5621" rx="24" ry="23.8144" fill="#4390ED"/>
<path d="M141.5 7.60035C141.5 11.7979 138.142 15.2007 134 15.2007C129.858 15.2007 126.5 11.7979 126.5 7.60035C126.5 3.40279 129.858 0 134 0C138.142 0 141.5 3.40279 141.5 7.60035Z" fill="#4390ED"/>
<ellipse cx="91.5" cy="34.9613" rx="5" ry="5.0669" fill="#EFEFEF"/>
<path d="M83 568.245C65.4 539.845 -2.33333 547.412 -34 554.745L-27.5 730.245C-14.3333 717.745 24.9 688.545 76.5 671.745C141 650.745 105 603.745 83 568.245Z" fill="#99C7FF" fill-opacity="0.35"/>
<path d="M285.5 425.5C375.1 367.9 390.167 257.5 386.5 209.5C539 209.5 466 504 380 544.5C294 585 173.5 497.5 285.5 425.5Z" fill="#99C7FF" fill-opacity="0.35"/>
<path d="M158.5 757.602C68.5001 737.202 -10.8333 763.602 -34.9999 770.102L-44 949H394V751.102C347.667 770.602 248.5 778.002 158.5 757.602Z" fill="#EFEFEF"/>
<defs>
<linearGradient id="paint0_linear" x1="190.343" y1="28.8811" x2="190.343" y2="790.5" gradientUnits="userSpaceOnUse">
<stop stop-color="#2371E2"/>
<stop offset="0.625" stop-color="#4390ED"/>
</linearGradient>
</defs>
</svg>
