<svg width="203" height="184" viewBox="0 0 203 184" fill="none" xmlns="http://www.w3.org/2000/svg">
<path d="M196.675 40.6058C197.078 40.278 197.546 40.0068 198.085 39.9129C200.001 39.552 201.504 41.3364 200.949 43.127C200.598 44.2995 199.926 45.1889 198.806 45.6822C197.806 46.168 196.743 46.5972 195.687 47.1471C195.276 47.3542 194.865 47.5614 194.453 47.7685C193.632 46.2447 192.762 44.9057 191.941 43.3819C191.263 42.2127 191.366 40.9345 191.958 39.7471C192.332 38.9367 193.09 38.4658 194.12 38.4627C195.149 38.4595 195.91 39.018 196.389 39.8968C196.524 40.1306 196.539 40.372 196.675 40.6058Z" fill="#F4A5A7"/>
<path d="M179.279 1.92871C179.389 1.63515 179.55 1.3515 179.802 1.13828C180.688 0.366709 182.014 0.836915 182.271 1.93784C182.446 2.65493 182.367 3.32241 181.935 3.92044C181.563 4.47781 181.14 5.02527 180.758 5.63322C180.608 5.86628 180.457 6.09935 180.306 6.33241C179.414 5.78983 178.554 5.35834 177.662 4.81576C176.953 4.41403 176.617 3.71776 176.563 2.91935C176.511 2.38377 176.762 1.90772 177.296 1.59236C177.831 1.277 178.397 1.33555 178.914 1.64702C179.056 1.72736 179.137 1.84837 179.279 1.92871Z" fill="#F4A5A7"/>
<ellipse cx="103.996" cy="161.859" rx="94.6026" ry="22.141" fill="#C4C4C4"/>
<g clip-path="url(#clip0)">
<path d="M88.2877 161.428H73.1269V169.239H88.2877V161.428Z" fill="#848484"/>
<path d="M160.961 161.428H145.8V169.239H160.961V161.428Z" fill="#848484"/>
<path d="M158.242 165.375H75.5163C69.5838 165.375 64.7224 160.524 64.7224 154.604V37.7707C64.8048 31.8509 69.5838 27 75.5163 27H158.242C164.175 27 169.036 31.8509 169.036 37.7707V154.686C169.036 160.606 164.175 165.375 158.242 165.375Z" fill="white"/>
<path d="M117.044 136.845C136.657 136.845 152.557 120.98 152.557 101.409C152.557 81.8375 136.657 65.972 117.044 65.972C97.4309 65.972 81.5313 81.8375 81.5313 101.409C81.5313 120.98 97.4309 136.845 117.044 136.845Z" fill="#9A9999"/>
<path d="M117.044 132.734C134.382 132.734 148.437 118.709 148.437 101.408C148.437 84.1079 134.382 70.0829 117.044 70.0829C99.706 70.0829 85.6509 84.1079 85.6509 101.408C85.6509 118.709 99.706 132.734 117.044 132.734Z" fill="#394A70"/>
<path d="M162.197 50.268C163.517 50.268 164.587 49.2005 164.587 47.8837C164.587 46.5668 163.517 45.4993 162.197 45.4993C160.878 45.4993 159.808 46.5668 159.808 47.8837C159.808 49.2005 160.878 50.268 162.197 50.268Z" fill="#848484"/>
<path d="M156.841 47.8837C156.841 49.1992 155.77 50.268 154.452 50.268C153.134 50.268 152.062 49.1992 152.062 47.8837C152.062 46.5682 156.841 46.5682 156.841 47.8837Z" fill="#848484"/>
<path d="M146.624 50.268C147.944 50.268 149.014 49.2005 149.014 47.8837C149.014 46.5668 147.944 45.4993 146.624 45.4993C145.305 45.4993 144.235 46.5668 144.235 47.8837C144.235 49.2005 145.305 50.268 146.624 50.268Z" fill="#848484"/>
<path d="M134.759 52.6524H129.321C126.602 52.6524 124.295 50.4325 124.295 47.637C124.295 44.9238 126.519 42.6216 129.321 42.6216H134.759C137.478 42.6216 139.785 44.8416 139.785 47.637C139.703 50.4325 137.478 52.6524 134.759 52.6524Z" fill="#848484"/>
<path d="M139.703 46.486H124.295V53.1458H139.703V46.486Z" fill="#848484"/>
<path d="M112.512 51.9947C114.788 51.9947 116.632 50.1542 116.632 47.8837C116.632 45.6133 114.788 43.7728 112.512 43.7728C110.237 43.7728 108.392 45.6133 108.392 47.8837C108.392 50.1542 110.237 51.9947 112.512 51.9947Z" fill="#848484"/>
<path d="M112.512 39.4974V42.2929" stroke="#848484" stroke-width="0.5166" stroke-miterlimit="10"/>
<path d="M112.512 53.4746V56.2701" stroke="#848484" stroke-width="0.5166" stroke-miterlimit="10"/>
<path d="M118.362 41.9639L116.467 43.9371" stroke="#848484" stroke-width="0.5166" stroke-miterlimit="10"/>
<path d="M108.475 51.8301L106.58 53.8034" stroke="#848484" stroke-width="0.5166" stroke-miterlimit="10"/>
<path d="M120.834 47.8837H118.115" stroke="#848484" stroke-width="0.5166" stroke-miterlimit="10"/>
<path d="M106.827 47.8837H104.108" stroke="#848484" stroke-width="0.5166" stroke-miterlimit="10"/>
<path d="M106.58 41.9639L108.475 43.9371" stroke="#848484" stroke-width="0.5166" stroke-miterlimit="10"/>
<path d="M116.467 51.8301L118.362 53.8034" stroke="#848484" stroke-width="0.5166" stroke-miterlimit="10"/>
<path d="M94.5498 42.6218C93.973 39.1685 90.9243 36.6198 87.2989 36.6198H77.6585C74.0331 36.6198 71.0669 39.2508 70.4077 42.6218H70.3253V43.9373V45.0061V53.1458H94.6321V45.0061V43.9373V42.6218H94.5498Z" fill="#848484"/>
<path d="M64.8049 32.7554H169.036" stroke="#AFAFAF" stroke-width="0.3977" stroke-miterlimit="10"/>
<path d="M64.8049 59.8878H169.036" stroke="#AFAFAF" stroke-width="0.3977" stroke-miterlimit="10"/>
<path d="M64.8049 159.209H169.036" stroke="#AFAFAF" stroke-width="0.3977" stroke-miterlimit="10"/>
<path d="M109.052 96.2287C105.096 95.4887 89.606 87.8424 84.8271 93.5977C80.0481 99.353 77.8234 105.848 86.2278 107.411C94.6322 108.973 103.943 107.246 108.228 103.711C112.512 100.34 109.052 96.2287 109.052 96.2287Z" fill="#BDDECF"/>
<path d="M48.3257 136.845C67.9388 136.845 83.8384 120.98 83.8384 101.409C83.8384 81.8375 67.9388 65.972 48.3257 65.972C28.7125 65.972 12.8129 81.8375 12.8129 101.409C12.8129 120.98 28.7125 136.845 48.3257 136.845Z" fill="#AFAFAF"/>
<path d="M48.3255 128.705C63.4336 128.705 75.6811 116.484 75.6811 101.409C75.6811 86.3329 63.4336 74.1118 48.3255 74.1118C33.2175 74.1118 20.97 86.3329 20.97 101.409C20.97 116.484 33.2175 128.705 48.3255 128.705Z" fill="#A8ECF6"/>
<path d="M100.4 101.408C100.4 101.408 97.269 102.313 98.7521 99.5174C100.235 96.7219 120.093 90.391 127.426 95.7353C134.759 101.08 144.729 100.011 146.46 98.5307C148.19 97.0508 152.062 98.2019 151.815 100.422C151.568 102.642 152.639 120.812 143.328 121.388C133.853 121.881 93.1492 109.219 100.4 101.408Z" fill="#FF7076"/>
<g opacity="0.52">
<g opacity="0.52">
<path opacity="0.52" d="M64.3693 80.0044L26.7967 116.235L32.835 122.944L70.4077 86.0427L64.3693 80.0044Z" fill="white"/>
<path opacity="0.52" d="M74.4334 96.778L43.57 127.641L54.305 127.641L74.4332 107.513L74.4334 96.778Z" fill="white"/>
<path opacity="0.52" d="M39.5446 75.9786L18.0745 98.1196L18.0745 109.526L50.9505 74.6369L39.5446 75.9786Z" fill="white"/>
</g>
</g>
<path d="M38.3557 101.409C38.3557 110.946 30.6104 118.675 21.0525 118.675C19.6517 118.675 18.3334 118.51 17.0151 118.181C14.296 113.166 12.7305 107.411 12.7305 101.326C12.7305 95.2421 14.296 89.4867 17.0151 84.4713C18.3334 84.1425 19.6517 83.978 21.0525 83.978C30.6104 84.1425 38.3557 91.8711 38.3557 101.409Z" fill="#AFAFAF"/>
<path d="M84.8271 104.615C88.2877 104.122 98.6696 97.8728 106.662 103.546C114.655 109.219 115.726 110.288 119.433 110.124C123.141 110.041 133.853 109.63 133.358 113.577C132.864 117.523 123.141 120.73 123.141 120.73C123.141 120.73 85.4863 125.17 86.3102 117.688C86.9694 110.37 84.8271 104.615 84.8271 104.615Z" fill="#AF6D71"/>
<path d="M144.976 115.797C144.976 115.797 140.856 107.986 123.8 111.11C106.744 114.235 88.6173 114.235 86.9694 110.37C85.4038 106.506 86.6398 113.495 87.5461 115.797C88.4525 118.181 106.827 135.858 113.171 135.529C119.516 135.201 130.145 132.405 135.748 128.705C141.433 125.088 145.8 116.948 144.976 115.797Z" fill="#F4A5A7"/>
<path d="M92.9843 124.594C92.9843 124.594 105.509 116.619 119.516 120.894C133.523 125.17 144.235 119.579 144.235 119.579C144.235 119.579 138.385 131.501 124.377 132.652C110.288 133.885 94.1379 129.281 92.9843 124.594Z" fill="#FFE99C"/>
<path d="M117.044 70.9052C133.935 70.9052 147.613 84.5536 147.613 101.409C147.613 118.263 133.935 131.912 117.044 131.912C100.153 131.912 86.4751 118.263 86.4751 101.409C86.4751 84.5536 100.235 70.9052 117.044 70.9052ZM117.044 65.972C97.4338 65.972 81.5313 81.8404 81.5313 101.409C81.5313 120.977 97.4338 136.845 117.044 136.845C136.654 136.845 152.557 120.977 152.557 101.409C152.557 81.8404 136.654 65.972 117.044 65.972Z" fill="#9A9999"/>
<g clip-path="url(#clip1)">
<path d="M133.947 87.9717C134.139 87.6235 134.393 87.297 134.748 87.0758C136.004 86.2707 137.581 87.1051 137.701 88.5343C137.788 89.4665 137.567 90.2898 136.914 90.9608C136.344 91.5919 135.713 92.2013 135.121 92.894C134.889 93.1588 134.657 93.4236 134.425 93.6883C133.406 92.8431 132.405 92.1429 131.386 91.2977C130.569 90.6628 130.276 89.7269 130.356 88.7149C130.388 88.033 130.791 87.4817 131.52 87.1843C132.249 86.887 132.949 87.0648 133.54 87.5509C133.704 87.6778 133.783 87.8447 133.947 87.9717Z" fill="#F4A5A7"/>
</g>
</g>
<g clip-path="url(#clip2)">
<path d="M167.38 73.9558C168.07 73.3951 168.87 72.9311 169.793 72.7704C173.07 72.1531 175.642 75.2056 174.692 78.269C174.091 80.2747 172.942 81.7963 171.025 82.6402C169.316 83.4712 167.496 84.2055 165.69 85.1462C164.986 85.5006 164.283 85.8549 163.58 86.2093C162.175 83.6025 160.686 81.3118 159.282 78.705C158.122 76.7047 158.297 74.5181 159.311 72.4869C159.951 71.1004 161.248 70.2949 163.009 70.2895C164.769 70.2841 166.072 71.2395 166.89 72.7429C167.122 73.1429 167.148 73.5558 167.38 73.9558Z" fill="#F4A5A7"/>
</g>
<defs>
<clipPath id="clip0">
<rect width="169.077" height="142.239" fill="white" transform="translate(0 27)"/>
</clipPath>
<clipPath id="clip1">
<rect width="7.2585" height="7.06232" fill="white" transform="matrix(0.94296 0.332906 -0.332907 0.94296 131.557 85.116)"/>
</clipPath>
<clipPath id="clip2">
<rect width="16.2326" height="15.7939" fill="white" transform="translate(164.817 66.0331) rotate(41.4573)"/>
</clipPath>
</defs>
</svg>
