<svg width="42" height="35" viewBox="0 0 42 35" fill="none" xmlns="http://www.w3.org/2000/svg">
<mask id="path-1-inside-1" fill="white">
<path fill-rule="evenodd" clip-rule="evenodd" d="M20.1826 0C24.9743 0 29.3493 1.9 32.4743 4.99999C33.7594 6.27488 34.8508 7.75271 35.6904 9.37786L39.7656 7.50001C40.3906 7.20001 41.0156 7.40001 41.3281 8.00001C41.5365 8.50001 41.3281 9.20001 40.7031 9.50001L36.5758 11.4019C37.2231 13.1888 37.5784 15.1085 37.5784 17.1C37.5784 19.3533 37.1235 21.5148 36.3055 23.4961L40.7031 25.5C41.3281 25.8 41.5365 26.5 41.3281 27C41.0156 27.6 40.3906 27.8 39.7656 27.5L35.3375 25.4708C34.5532 26.8418 33.5863 28.0969 32.4743 29.2C29.3493 32.3 24.9743 34.2 20.1826 34.2C15.3909 34.2 11.0159 32.3 7.89093 29.2C6.87931 28.1964 5.98778 27.0672 5.24458 25.8393L1.64062 27.5C1.01562 27.8 0.390625 27.6 0.078125 27C-0.130208 26.5 0.078125 25.8 0.703125 25.5L4.22292 23.8781C3.30242 21.7939 2.78676 19.499 2.78676 17.1C2.78676 14.985 3.18753 12.9511 3.91313 11.071L0.703125 9.60003C0.078125 9.30003 -0.130208 8.60003 0.078125 8.10003C0.286458 7.60004 1.01562 7.40004 1.64062 7.70004L4.80015 9.13976C5.62193 7.60821 6.66881 6.21234 7.89093 4.99999C11.1201 1.9 15.3909 0 20.1826 0ZM5.88207 11.9732C5.29127 13.5808 4.97426 15.3119 4.97426 17.1C4.97426 19.1693 5.39882 21.1622 6.18097 22.9758L18.0038 17.5279L5.88207 11.9732ZM20.5914 16.3355L6.76003 10.0328C7.4711 8.72434 8.37859 7.53184 9.45343 6.49999C12.1618 3.79999 16.1201 2.1 20.2868 2.1C24.4534 2.1 28.3076 3.79999 31.0159 6.49999C32.1103 7.59101 33.0516 8.86164 33.778 10.2591L20.5914 16.3355ZM20.65 18.7405L7.20791 24.9346C7.83912 25.9441 8.5926 26.8736 9.45343 27.7C12.1618 30.4 16.0159 32.1 20.1826 32.1C24.3493 32.1 28.2034 30.4 30.9118 27.7C31.8435 26.7711 32.6642 25.7121 33.3401 24.5555L20.65 18.7405ZM34.3091 22.5864L23.245 17.5447L34.6474 12.2905C35.1644 13.8077 35.4334 15.4289 35.3909 17.1C35.3909 19.0222 35.0017 20.8785 34.3091 22.5864Z"/>
</mask>
<path fill-rule="evenodd" clip-rule="evenodd" d="M20.1826 0C24.9743 0 29.3493 1.9 32.4743 4.99999C33.7594 6.27488 34.8508 7.75271 35.6904 9.37786L39.7656 7.50001C40.3906 7.20001 41.0156 7.40001 41.3281 8.00001C41.5365 8.50001 41.3281 9.20001 40.7031 9.50001L36.5758 11.4019C37.2231 13.1888 37.5784 15.1085 37.5784 17.1C37.5784 19.3533 37.1235 21.5148 36.3055 23.4961L40.7031 25.5C41.3281 25.8 41.5365 26.5 41.3281 27C41.0156 27.6 40.3906 27.8 39.7656 27.5L35.3375 25.4708C34.5532 26.8418 33.5863 28.0969 32.4743 29.2C29.3493 32.3 24.9743 34.2 20.1826 34.2C15.3909 34.2 11.0159 32.3 7.89093 29.2C6.87931 28.1964 5.98778 27.0672 5.24458 25.8393L1.64062 27.5C1.01562 27.8 0.390625 27.6 0.078125 27C-0.130208 26.5 0.078125 25.8 0.703125 25.5L4.22292 23.8781C3.30242 21.7939 2.78676 19.499 2.78676 17.1C2.78676 14.985 3.18753 12.9511 3.91313 11.071L0.703125 9.60003C0.078125 9.30003 -0.130208 8.60003 0.078125 8.10003C0.286458 7.60004 1.01562 7.40004 1.64062 7.70004L4.80015 9.13976C5.62193 7.60821 6.66881 6.21234 7.89093 4.99999C11.1201 1.9 15.3909 0 20.1826 0ZM5.88207 11.9732C5.29127 13.5808 4.97426 15.3119 4.97426 17.1C4.97426 19.1693 5.39882 21.1622 6.18097 22.9758L18.0038 17.5279L5.88207 11.9732ZM20.5914 16.3355L6.76003 10.0328C7.4711 8.72434 8.37859 7.53184 9.45343 6.49999C12.1618 3.79999 16.1201 2.1 20.2868 2.1C24.4534 2.1 28.3076 3.79999 31.0159 6.49999C32.1103 7.59101 33.0516 8.86164 33.778 10.2591L20.5914 16.3355ZM20.65 18.7405L7.20791 24.9346C7.83912 25.9441 8.5926 26.8736 9.45343 27.7C12.1618 30.4 16.0159 32.1 20.1826 32.1C24.3493 32.1 28.2034 30.4 30.9118 27.7C31.8435 26.7711 32.6642 25.7121 33.3401 24.5555L20.65 18.7405ZM34.3091 22.5864L23.245 17.5447L34.6474 12.2905C35.1644 13.8077 35.4334 15.4289 35.3909 17.1C35.3909 19.0222 35.0017 20.8785 34.3091 22.5864Z" fill="white"/>
<path d="M32.4743 4.99999L31.77 5.70993V5.70993L32.4743 4.99999ZM35.6904 9.37786L34.802 9.83686L35.2407 10.6861L36.1089 10.2861L35.6904 9.37786ZM39.7656 7.50001L40.1841 8.40823L40.1913 8.40494L40.1984 8.40154L39.7656 7.50001ZM41.3281 8.00001L42.2512 7.61539L42.2348 7.57596L42.215 7.53808L41.3281 8.00001ZM40.7031 9.50001L41.1216 10.4082L41.1288 10.4049L41.1359 10.4015L40.7031 9.50001ZM36.5758 11.4019L36.1573 10.4937L35.3226 10.8783L35.6356 11.7424L36.5758 11.4019ZM36.3055 23.4961L35.3811 23.1144L35.013 24.0061L35.8908 24.406L36.3055 23.4961ZM40.7031 25.5L41.1359 24.5985L41.1269 24.5942L41.1178 24.59L40.7031 25.5ZM41.3281 27L42.215 27.4619L42.2348 27.424L42.2512 27.3846L41.3281 27ZM39.7656 27.5L40.1984 26.5985L40.1903 26.5946L40.1822 26.5909L39.7656 27.5ZM35.3375 25.4708L35.7541 24.5617L34.9233 24.181L34.4695 24.9743L35.3375 25.4708ZM32.4743 29.2L31.77 28.49L32.4743 29.2ZM7.89093 29.2L7.18667 29.9099L7.89093 29.2ZM5.24458 25.8393L6.10008 25.3215L5.63747 24.5572L4.82608 24.9311L5.24458 25.8393ZM1.64062 27.5L1.22212 26.5918L1.21498 26.5951L1.20789 26.5985L1.64062 27.5ZM0.078125 27L-0.844952 27.3846L-0.828522 27.424L-0.808789 27.4619L0.078125 27ZM0.703125 25.5L0.28462 24.5918L0.277481 24.5951L0.270395 24.5985L0.703125 25.5ZM4.22292 23.8781L4.64143 24.7863L5.53531 24.3744L5.13768 23.4741L4.22292 23.8781ZM3.91313 11.071L4.84606 11.431L5.18468 10.5537L4.32971 10.1619L3.91313 11.071ZM0.703125 9.60003L0.270395 10.5016L0.278434 10.5054L0.286541 10.5091L0.703125 9.60003ZM0.078125 8.10003L-0.844952 7.71542L-0.844952 7.71542L0.078125 8.10003ZM1.64062 7.70004L1.20789 8.60156L1.21689 8.60588L1.22597 8.61001L1.64062 7.70004ZM4.80015 9.13976L4.38549 10.0497L5.23824 10.4383L5.68131 9.61257L4.80015 9.13976ZM7.89093 4.99999L7.1984 4.2786L7.19249 4.28428L7.18667 4.29005L7.89093 4.99999ZM5.88207 11.9732L6.29865 11.0641L5.31622 10.6139L4.94345 11.6283L5.88207 11.9732ZM6.18097 22.9758L5.26272 23.3718L5.6686 24.313L6.59947 23.884L6.18097 22.9758ZM18.0038 17.5279L18.4223 18.4361L20.3987 17.5253L18.4204 16.6188L18.0038 17.5279ZM20.5914 16.3355L20.1767 17.2455L20.5937 17.4355L21.0099 17.2437L20.5914 16.3355ZM6.76003 10.0328L5.88138 9.55536L5.36915 10.498L6.34537 10.9428L6.76003 10.0328ZM9.45343 6.49999L10.146 7.22138L10.1528 7.21485L10.1594 7.20819L9.45343 6.49999ZM31.0159 6.49999L31.7219 5.7918V5.79179L31.0159 6.49999ZM33.778 10.2591L34.1965 11.1673L35.149 10.7284L34.6653 9.7979L33.778 10.2591ZM20.65 18.7405L21.0666 17.8314L20.6488 17.6399L20.2315 17.8323L20.65 18.7405ZM7.20791 24.9346L6.78941 24.0264L5.75788 24.5017L6.36 25.4647L7.20791 24.9346ZM9.45343 27.7L10.1594 26.9918L10.1528 26.9851L10.146 26.9786L9.45343 27.7ZM30.9118 27.7L30.2057 26.9918L30.9118 27.7ZM33.3401 24.5555L34.2035 25.0601L34.7607 24.1065L33.7566 23.6465L33.3401 24.5555ZM34.3091 22.5864L33.8944 23.4963L34.8437 23.9289L35.2358 22.9622L34.3091 22.5864ZM23.245 17.5447L22.8265 16.6365L20.8445 17.5498L22.8303 18.4547L23.245 17.5447ZM34.6474 12.2905L35.5939 11.968L35.2362 10.9181L34.2289 11.3823L34.6474 12.2905ZM35.3909 17.1L34.3913 17.0746L34.3909 17.0873V17.1H35.3909ZM33.1785 4.29005C29.8681 1.00611 25.2407 -1 20.1826 -1V1C24.7078 1 28.8304 2.79388 31.77 5.70993L33.1785 4.29005ZM36.5789 8.91886C35.6907 7.19967 34.5368 5.63742 33.1785 4.29005L31.77 5.70993C32.9821 6.91233 34.011 8.30576 34.802 9.83686L36.5789 8.91886ZM39.3471 6.5918L35.2719 8.46965L36.1089 10.2861L40.1841 8.40823L39.3471 6.5918ZM42.215 7.53808C41.9503 7.02979 41.5196 6.63632 40.9688 6.46009C40.4206 6.28466 39.8441 6.35311 39.3329 6.59849L40.1984 8.40154C40.2568 8.37349 40.2984 8.36511 40.322 8.36291C40.3449 8.36078 40.3559 8.36386 40.3593 8.36494C40.3625 8.36595 40.3694 8.36849 40.3809 8.37858C40.3929 8.38913 40.4159 8.41332 40.4412 8.46195L42.215 7.53808ZM41.1359 10.4015C42.2438 9.86969 42.6626 8.60263 42.2512 7.61539L40.405 8.38463C40.4022 8.37771 40.4152 8.41218 40.393 8.47078C40.375 8.51833 40.3394 8.56538 40.2704 8.59849L41.1359 10.4015ZM36.9943 12.3101L41.1216 10.4082L40.2846 8.59179L36.1573 10.4937L36.9943 12.3101ZM38.5784 17.1C38.5784 14.9888 38.2016 12.9541 37.516 11.0613L35.6356 11.7424C36.2446 13.4236 36.5784 15.2282 36.5784 17.1H38.5784ZM37.2298 23.8777C38.096 21.7797 38.5784 19.4889 38.5784 17.1H36.5784C36.5784 19.2177 36.151 21.2498 35.3811 23.1144L37.2298 23.8777ZM41.1178 24.59L36.7201 22.5861L35.8908 24.406L40.2885 26.41L41.1178 24.59ZM42.2512 27.3846C42.6626 26.3974 42.2438 25.1303 41.1359 24.5985L40.2704 26.4015C40.3394 26.4346 40.375 26.4817 40.393 26.5292C40.4152 26.5878 40.4022 26.6223 40.405 26.6154L42.2512 27.3846ZM39.3329 28.4015C39.8441 28.6469 40.4206 28.7153 40.9688 28.5399C41.5196 28.3637 41.9503 27.9702 42.215 27.4619L40.4412 26.5381C40.4159 26.5867 40.3929 26.6109 40.3809 26.6214C40.3694 26.6315 40.3625 26.6341 40.3593 26.6351C40.3559 26.6361 40.3449 26.6392 40.322 26.6371C40.2984 26.6349 40.2568 26.6265 40.1984 26.5985L39.3329 28.4015ZM34.9209 26.3799L39.349 28.4091L40.1822 26.5909L35.7541 24.5617L34.9209 26.3799ZM33.1785 29.9099C34.3538 28.744 35.376 27.4173 36.2055 25.9674L34.4695 24.9743C33.7304 26.2663 32.8187 27.4497 31.77 28.49L33.1785 29.9099ZM20.1826 35.2C25.2407 35.2 29.8681 33.1938 33.1785 29.9099L31.77 28.49C28.8304 31.4061 24.7078 33.2 20.1826 33.2V35.2ZM7.18667 29.9099C10.4971 33.1938 15.1245 35.2 20.1826 35.2V33.2C15.6574 33.2 11.5348 31.4061 8.59519 28.49L7.18667 29.9099ZM4.38908 26.3571C5.17499 27.6555 6.11746 28.8492 7.18667 29.9099L8.59519 28.49C7.64117 27.5436 6.80056 26.4788 6.10008 25.3215L4.38908 26.3571ZM2.05913 28.4082L5.66308 26.7475L4.82608 24.9311L1.22212 26.5918L2.05913 28.4082ZM-0.808789 27.4619C-0.544058 27.9702 -0.113326 28.3637 0.437412 28.5399C0.985622 28.7153 1.56216 28.6469 2.07336 28.4015L1.20789 26.5985C1.14947 26.6265 1.10787 26.6349 1.08425 26.6371C1.06135 26.6392 1.05033 26.6361 1.04696 26.6351C1.04379 26.634 1.03687 26.6315 1.02536 26.6214C1.01333 26.6109 0.990363 26.5867 0.965039 26.5381L-0.808789 27.4619ZM0.270395 24.5985C-0.837606 25.1303 -1.2563 26.3974 -0.844952 27.3846L1.0012 26.6154C1.00408 26.6223 0.991087 26.5878 1.01328 26.5292C1.03129 26.4817 1.06689 26.4346 1.13586 26.4015L0.270395 24.5985ZM3.80442 22.9699L0.28462 24.5918L1.12163 26.4082L4.64143 24.7863L3.80442 22.9699ZM1.78676 17.1C1.78676 19.6435 2.33365 22.0756 3.30816 24.2821L5.13768 23.4741C4.2712 21.5121 3.78676 19.3546 3.78676 17.1H1.78676ZM2.9802 10.7109C2.21175 12.702 1.78676 14.8578 1.78676 17.1H3.78676C3.78676 15.1122 4.16331 13.2001 4.84606 11.431L2.9802 10.7109ZM0.286541 10.5091L3.49655 11.9801L4.32971 10.1619L1.11971 8.69093L0.286541 10.5091ZM-0.844952 7.71542C-1.2563 8.70265 -0.837605 9.96972 0.270395 10.5016L1.13586 8.69851C1.06689 8.6654 1.03129 8.61835 1.01328 8.57081C0.991087 8.51221 1.00408 8.47773 1.0012 8.48465L-0.844952 7.71542ZM2.07336 6.79851C1.54968 6.54715 0.968189 6.49693 0.449844 6.63264C-0.062665 6.76683 -0.593442 7.1118 -0.844952 7.71542L1.0012 8.48465C0.958026 8.58827 0.895998 8.58324 0.956406 8.56743C1.01098 8.55314 1.10657 8.55292 1.20789 8.60156L2.07336 6.79851ZM5.21481 8.22979L2.05528 6.79006L1.22597 8.61001L4.38549 10.0497L5.21481 8.22979ZM7.18667 4.29005C5.89504 5.57135 4.78824 7.04693 3.91898 8.66696L5.68131 9.61257C6.45562 8.16949 7.44258 6.85332 8.59519 5.70993L7.18667 4.29005ZM20.1826 -1C15.1155 -1 10.6009 1.0122 7.1984 4.2786L8.58346 5.72138C11.6393 2.7878 15.6664 1 20.1826 1V-1ZM4.94345 11.6283C4.31235 13.3455 3.97426 15.1933 3.97426 17.1H5.97426C5.97426 15.4305 6.27019 13.8161 6.82069 12.3182L4.94345 11.6283ZM3.97426 17.1C3.97426 19.3066 4.42709 21.4342 5.26272 23.3718L7.09922 22.5798C6.37055 20.8902 5.97426 19.032 5.97426 17.1H3.97426ZM6.59947 23.884L18.4223 18.4361L17.5853 16.6196L5.76246 22.0676L6.59947 23.884ZM5.46549 12.8823L17.5872 18.437L18.4204 16.6188L6.29865 11.0641L5.46549 12.8823ZM21.006 15.4255L7.17469 9.12286L6.34537 10.9428L20.1767 17.2455L21.006 15.4255ZM8.7609 5.7786C7.61123 6.88228 6.64117 8.15722 5.88138 9.55536L7.63867 10.5103C8.30103 9.29146 9.14595 8.18139 10.146 7.22138L8.7609 5.7786ZM20.2868 1.1C15.8565 1.1 11.644 2.90413 8.74741 5.79179L10.1594 7.20819C12.6795 4.69586 16.3836 3.1 20.2868 3.1V1.1ZM31.7219 5.79179C28.8305 2.90927 24.7242 1.1 20.2868 1.1V3.1C24.1827 3.1 27.7847 4.69072 30.3099 7.20819L31.7219 5.79179ZM34.6653 9.7979C33.8906 8.30746 32.8876 6.95388 31.7219 5.7918L30.3099 7.20819C31.333 8.22814 32.2127 9.41582 32.8907 10.7203L34.6653 9.7979ZM21.0099 17.2437L34.1965 11.1673L33.3595 9.35089L20.1729 15.4273L21.0099 17.2437ZM20.2315 17.8323L6.78941 24.0264L7.62642 25.8428L21.0685 19.6487L20.2315 17.8323ZM6.36 25.4647C7.03459 26.5437 7.84014 27.5374 8.7609 28.4213L10.146 26.9786C9.34507 26.2097 8.64365 25.3446 8.05582 24.4044L6.36 25.4647ZM8.74741 28.4082C11.6388 31.2907 15.7452 33.1 20.1826 33.1V31.1C16.2867 31.1 12.6847 29.5092 10.1594 26.9918L8.74741 28.4082ZM20.1826 33.1C24.62 33.1 28.7264 31.2907 31.6178 28.4082L30.2057 26.9918C27.6805 29.5092 24.0785 31.1 20.1826 31.1V33.1ZM31.6178 28.4082C32.6103 27.4186 33.484 26.2912 34.2035 25.0601L32.4767 24.051C31.8444 25.1331 31.0766 26.1236 30.2057 26.9918L31.6178 28.4082ZM20.2334 19.6496L32.9235 25.4646L33.7566 23.6465L21.0666 17.8314L20.2334 19.6496ZM34.7237 21.6764L23.6597 16.6347L22.8303 18.4547L33.8944 23.4963L34.7237 21.6764ZM34.2289 11.3823L22.8265 16.6365L23.6635 18.4529L35.0659 13.1987L34.2289 11.3823ZM36.3906 17.1254C36.4362 15.3299 36.147 13.591 35.5939 11.968L33.7008 12.613C34.1817 14.0244 34.4305 15.528 34.3913 17.0746L36.3906 17.1254ZM35.2358 22.9622C35.9742 21.1414 36.3909 19.1579 36.3909 17.1H34.3909C34.3909 18.8865 34.0292 20.6155 33.3824 22.2106L35.2358 22.9622Z" fill="white" mask="url(#path-1-inside-1)"/>
</svg>
