<svg width="35" height="35" viewBox="0 0 35 35" fill="none" xmlns="http://www.w3.org/2000/svg">
<mask id="path-1-inside-1" fill="white">
<path fill-rule="evenodd" clip-rule="evenodd" d="M17.5 0H1.04167C0.46637 0 0 0.46637 0 1.04167V1.1V17.3V33.5V33.5583C0 34.1336 0.46637 34.6 1.04167 34.6H17.5H33.9583C34.5336 34.6 35 34.1336 35 33.5583V33.5V17.3V1.1V1.04166C35 0.466369 34.5336 0 33.9583 0H17.5ZM6.51441 3.84318C7.1622 3.32487 6.81367 2.1 5.98404 2.1H5.77376C5.01187 2.1 4.63281 3.02338 5.17494 3.5587L5.41734 3.79805C5.71482 4.09179 6.18798 4.10437 6.51441 3.84318ZM3.91218 6.40851C4.18354 6.07849 4.16838 5.59559 3.86388 5.29587L3.63511 5.07069C3.09723 4.54125 2.1875 4.9223 2.1875 5.67703V5.87354C2.1875 6.69633 3.38959 7.04402 3.91218 6.40851ZM2.1875 17.3C2.1875 14.9738 2.69876 12.7703 3.63278 10.8085C4.612 8.7517 7.3003 8.67835 8.92377 10.2763L13.1125 14.3993C14.7045 15.9663 14.7045 18.5337 13.1125 20.1007L8.94696 24.2009C7.30191 25.8201 4.57458 25.7191 3.59784 23.6277C2.70099 21.7073 2.1875 19.5616 2.1875 17.3ZM3.88174 28.1495C3.37124 27.5212 2.1875 27.8591 2.1875 28.6687V28.8608C2.1875 29.6015 3.08028 29.9754 3.60814 29.4559L3.83024 29.2372C4.12795 28.9442 4.14515 28.4737 3.88174 28.1495ZM6.4337 30.7172C6.11604 30.4572 5.65338 30.4689 5.36129 30.7573L5.13379 30.9819C4.60677 31.5023 4.97527 32.4 5.71591 32.4H5.91606C6.7177 32.4 7.05403 31.225 6.4337 30.7172ZM28.5927 30.6658C27.9495 31.1847 28.2906 32.4 29.117 32.4H29.3215C30.0833 32.4 30.4617 31.4762 29.9188 30.9418L29.6861 30.7127C29.3874 30.4187 28.9189 30.4026 28.5927 30.6658ZM24.5241 25.6317C26.1879 27.2694 26.0972 30.0267 23.9716 30.9924C21.9898 31.8928 19.776 32.4 17.5 32.4C15.2544 32.4 13.0996 31.9062 11.1496 31.0282C9.00187 30.0611 8.89252 27.2705 10.5686 25.6155L14.721 21.5153C16.2772 19.9787 18.7789 19.9767 20.3375 21.5108L24.5241 25.6317ZM31.1428 28.1243C30.8701 28.4592 30.8863 28.9467 31.1936 29.2502L31.4422 29.4957C31.9893 30.0359 32.9167 29.6483 32.9167 28.8794V28.6663C32.9167 27.8255 31.6736 27.4722 31.1428 28.1243ZM31.1081 6.4332C31.6501 7.09483 32.9167 6.7342 32.9167 5.87889V5.65844C32.9167 4.8755 31.9724 4.48085 31.4152 5.03096L31.1578 5.28512C30.8443 5.59471 30.8289 6.09235 31.1081 6.4332ZM26.0956 10.2837C27.7303 8.66955 30.4462 8.75422 31.4298 10.8304C32.3566 12.7867 32.87 14.9825 32.8125 17.3C32.8125 19.5853 32.3191 21.7522 31.4161 23.6879C30.4481 25.7629 27.7437 25.8437 26.1145 24.2349L21.9231 20.0963C20.3371 18.5302 20.3371 15.9698 21.9231 14.4037L26.0956 10.2837ZM23.8497 3.52503C26.0145 4.4809 26.1308 7.28678 24.4443 8.94682L20.3375 12.9892C18.7789 14.5233 16.2772 14.5213 14.721 12.9847L10.5919 8.90752C8.92307 7.25969 9.02795 4.48551 11.1746 3.54086C13.1579 2.66805 15.3506 2.2 17.6042 2.2C19.8096 2.2 21.9275 2.67628 23.8497 3.52503ZM29.6501 3.82278C29.3483 4.11977 28.8715 4.1316 28.5434 3.86404C27.8977 3.33744 28.2464 2.1 29.0796 2.1H29.3036C30.072 2.1 30.4536 3.03181 29.906 3.57082L29.6501 3.82278Z"/>
</mask>
<path fill-rule="evenodd" clip-rule="evenodd" d="M17.5 0H1.04167C0.46637 0 0 0.46637 0 1.04167V1.1V17.3V33.5V33.5583C0 34.1336 0.46637 34.6 1.04167 34.6H17.5H33.9583C34.5336 34.6 35 34.1336 35 33.5583V33.5V17.3V1.1V1.04166C35 0.466369 34.5336 0 33.9583 0H17.5ZM6.51441 3.84318C7.1622 3.32487 6.81367 2.1 5.98404 2.1H5.77376C5.01187 2.1 4.63281 3.02338 5.17494 3.5587L5.41734 3.79805C5.71482 4.09179 6.18798 4.10437 6.51441 3.84318ZM3.91218 6.40851C4.18354 6.07849 4.16838 5.59559 3.86388 5.29587L3.63511 5.07069C3.09723 4.54125 2.1875 4.9223 2.1875 5.67703V5.87354C2.1875 6.69633 3.38959 7.04402 3.91218 6.40851ZM2.1875 17.3C2.1875 14.9738 2.69876 12.7703 3.63278 10.8085C4.612 8.7517 7.3003 8.67835 8.92377 10.2763L13.1125 14.3993C14.7045 15.9663 14.7045 18.5337 13.1125 20.1007L8.94696 24.2009C7.30191 25.8201 4.57458 25.7191 3.59784 23.6277C2.70099 21.7073 2.1875 19.5616 2.1875 17.3ZM3.88174 28.1495C3.37124 27.5212 2.1875 27.8591 2.1875 28.6687V28.8608C2.1875 29.6015 3.08028 29.9754 3.60814 29.4559L3.83024 29.2372C4.12795 28.9442 4.14515 28.4737 3.88174 28.1495ZM6.4337 30.7172C6.11604 30.4572 5.65338 30.4689 5.36129 30.7573L5.13379 30.9819C4.60677 31.5023 4.97527 32.4 5.71591 32.4H5.91606C6.7177 32.4 7.05403 31.225 6.4337 30.7172ZM28.5927 30.6658C27.9495 31.1847 28.2906 32.4 29.117 32.4H29.3215C30.0833 32.4 30.4617 31.4762 29.9188 30.9418L29.6861 30.7127C29.3874 30.4187 28.9189 30.4026 28.5927 30.6658ZM24.5241 25.6317C26.1879 27.2694 26.0972 30.0267 23.9716 30.9924C21.9898 31.8928 19.776 32.4 17.5 32.4C15.2544 32.4 13.0996 31.9062 11.1496 31.0282C9.00187 30.0611 8.89252 27.2705 10.5686 25.6155L14.721 21.5153C16.2772 19.9787 18.7789 19.9767 20.3375 21.5108L24.5241 25.6317ZM31.1428 28.1243C30.8701 28.4592 30.8863 28.9467 31.1936 29.2502L31.4422 29.4957C31.9893 30.0359 32.9167 29.6483 32.9167 28.8794V28.6663C32.9167 27.8255 31.6736 27.4722 31.1428 28.1243ZM31.1081 6.4332C31.6501 7.09483 32.9167 6.7342 32.9167 5.87889V5.65844C32.9167 4.8755 31.9724 4.48085 31.4152 5.03096L31.1578 5.28512C30.8443 5.59471 30.8289 6.09235 31.1081 6.4332ZM26.0956 10.2837C27.7303 8.66955 30.4462 8.75422 31.4298 10.8304C32.3566 12.7867 32.87 14.9825 32.8125 17.3C32.8125 19.5853 32.3191 21.7522 31.4161 23.6879C30.4481 25.7629 27.7437 25.8437 26.1145 24.2349L21.9231 20.0963C20.3371 18.5302 20.3371 15.9698 21.9231 14.4037L26.0956 10.2837ZM23.8497 3.52503C26.0145 4.4809 26.1308 7.28678 24.4443 8.94682L20.3375 12.9892C18.7789 14.5233 16.2772 14.5213 14.721 12.9847L10.5919 8.90752C8.92307 7.25969 9.02795 4.48551 11.1746 3.54086C13.1579 2.66805 15.3506 2.2 17.6042 2.2C19.8096 2.2 21.9275 2.67628 23.8497 3.52503ZM29.6501 3.82278C29.3483 4.11977 28.8715 4.1316 28.5434 3.86404C27.8977 3.33744 28.2464 2.1 29.0796 2.1H29.3036C30.072 2.1 30.4536 3.03181 29.906 3.57082L29.6501 3.82278Z" fill="white"/>
<path d="M32.8125 17.3L31.8128 17.2752L31.8125 17.2876V17.3H32.8125ZM29.906 3.57082L29.2045 2.85814L29.906 3.57082ZM11.1746 3.54086L10.7718 2.62557L11.1746 3.54086ZM24.4443 8.94682L23.7428 8.23414L24.4443 8.94682ZM21.9231 14.4037L21.2205 13.6922L21.9231 14.4037ZM31.1578 5.28512L30.4552 4.57355L31.1578 5.28512ZM31.4152 5.03096L32.1179 5.74253L31.4152 5.03096ZM31.4422 29.4957L32.1448 28.7841L31.4422 29.4957ZM31.1936 29.2502L30.491 29.9617L31.1936 29.2502ZM14.721 21.5153L14.0184 20.8037L14.721 21.5153ZM23.9716 30.9924L23.558 30.0819L23.9716 30.9924ZM29.6861 30.7127L30.3876 30L29.6861 30.7127ZM29.9188 30.9418L29.2173 31.6544L29.9188 30.9418ZM5.36129 30.7573L6.0639 31.4689L5.36129 30.7573ZM3.83024 29.2372L3.12875 28.5246L3.83024 29.2372ZM3.60814 29.4559L4.30963 30.1685L3.60814 29.4559ZM3.63278 10.8085L2.72988 10.3786L3.63278 10.8085ZM3.63511 5.07069L2.93362 5.78337L3.63511 5.07069ZM3.86388 5.29587L4.56537 4.58319L3.86388 5.29587ZM5.17494 3.5587L4.47232 4.27026L5.17494 3.5587ZM5.13379 30.9819L4.43117 30.2704L5.13379 30.9819ZM1.04167 1H17.5V-1H1.04167V1ZM1 1.1V1.04167H-1V1.1H1ZM1 17.3V1.1H-1V17.3H1ZM1 33.5V17.3H-1V33.5H1ZM1 33.5583V33.5H-1V33.5583H1ZM17.5 33.6H1.04167V35.6H17.5V33.6ZM33.9583 33.6H17.5V35.6H33.9583V33.6ZM34 33.5V33.5583H36V33.5H34ZM34 17.3V33.5H36V17.3H34ZM34 1.1V17.3H36V1.1H34ZM34 1.04166V1.1H36V1.04166H34ZM17.5 1H33.9583V-1H17.5V1ZM5.98404 1.1H5.77376V3.1H5.98404V1.1ZM4.47232 4.27026L4.71472 4.50962L6.11996 3.08648L5.87756 2.84713L4.47232 4.27026ZM4.56537 4.58319L4.3366 4.35801L2.93362 5.78337L3.16239 6.00855L4.56537 4.58319ZM1.1875 5.67703V5.87354H3.1875V5.67703H1.1875ZM2.72988 10.3786C1.73144 12.4758 1.1875 14.8262 1.1875 17.3H3.1875C3.1875 15.1214 3.66607 13.0649 4.53567 11.2383L2.72988 10.3786ZM13.814 13.6866L9.62527 9.56365L8.22228 10.989L12.411 15.112L13.814 13.6866ZM9.64845 24.9135L13.814 20.8134L12.411 19.388L8.24547 23.4882L9.64845 24.9135ZM1.1875 17.3C1.1875 19.7143 1.73586 22.004 2.69178 24.0508L4.5039 23.2045C3.66612 21.4106 3.1875 19.4089 3.1875 17.3H1.1875ZM1.1875 28.6687V28.8608H3.1875V28.6687H1.1875ZM4.30963 30.1685L4.53173 29.9499L3.12875 28.5246L2.90665 28.7432L4.30963 30.1685ZM5.83641 31.6935L6.0639 31.4689L4.65867 30.0457L4.43117 30.2704L5.83641 31.6935ZM5.91606 31.4H5.71591V33.4H5.91606V31.4ZM29.3215 31.4H29.117V33.4H29.3215V31.4ZM28.9846 31.4254L29.2173 31.6544L30.6203 30.2291L30.3876 30L28.9846 31.4254ZM17.5 33.4C19.9238 33.4 22.2782 32.8601 24.3853 31.9028L23.558 30.0819C21.7013 30.9254 19.6282 31.4 17.5 31.4V33.4ZM10.7391 31.94C12.8126 32.8737 15.1069 33.4 17.5 33.4V31.4C15.4019 31.4 13.3866 30.9387 11.5602 30.1164L10.7391 31.94ZM11.2712 26.3271L15.4236 22.2268L14.0184 20.8037L9.86596 24.9039L11.2712 26.3271ZM19.636 22.2235L23.8226 26.3444L25.2256 24.919L21.0389 20.7981L19.636 22.2235ZM30.491 29.9617L30.7396 30.2072L32.1448 28.7841L31.8962 28.5386L30.491 29.9617ZM33.9167 28.8794V28.6663H31.9167V28.8794H33.9167ZM33.9167 5.87889V5.65844H31.9167V5.87889H33.9167ZM30.7126 4.31939L30.4552 4.57355L31.8605 5.99668L32.1179 5.74253L30.7126 4.31939ZM33.8122 17.3248C33.8738 14.8419 33.3233 12.4917 32.3335 10.4023L30.5261 11.2585C31.3898 13.0818 31.8662 15.123 31.8128 17.2752L33.8122 17.3248ZM32.3223 24.1106C33.2875 22.0416 33.8125 19.7303 33.8125 17.3H31.8125C31.8125 19.4403 31.3506 21.4628 30.5098 23.2651L32.3223 24.1106ZM21.2205 20.8078L25.4119 24.9465L26.8171 23.5234L22.6257 19.3847L21.2205 20.8078ZM25.393 9.57214L21.2205 13.6922L22.6257 15.1153L26.7982 10.9953L25.393 9.57214ZM21.0389 13.7019L25.1458 9.6595L23.7428 8.23414L19.636 12.2765L21.0389 13.7019ZM9.88927 9.61909L14.0184 13.6963L15.4236 12.2732L11.2945 8.19596L9.88927 9.61909ZM17.6042 1.2C15.2126 1.2 12.8827 1.69663 10.7718 2.62557L11.5774 4.45615C13.4332 3.63947 15.4886 3.2 17.6042 3.2V1.2ZM24.2536 2.61024C22.2095 1.70765 19.9544 1.2 17.6042 1.2V3.2C19.6648 3.2 21.6455 3.6449 23.4458 4.43982L24.2536 2.61024ZM29.3036 1.1H29.0796V3.1H29.3036V1.1ZM30.3515 4.53546L30.6075 4.2835L29.2045 2.85814L28.9486 3.1101L30.3515 4.53546ZM29.3036 3.1C29.2863 3.1 29.2528 3.09262 29.221 3.07016C29.1939 3.05095 29.1799 3.02931 29.1729 3.01231C29.166 2.9953 29.1608 2.97004 29.1666 2.93732C29.1735 2.89905 29.1922 2.87026 29.2045 2.85814L30.6075 4.2835C31.7928 3.11685 30.9667 1.1 29.3036 1.1V3.1ZM27.9114 4.63901C28.6164 5.21395 29.6696 5.2067 30.3515 4.53546L28.9486 3.1101C29.0271 3.03283 29.1266 3.04925 29.1754 3.08906L27.9114 4.63901ZM11.2945 8.19596C10.6635 7.57288 10.3888 6.75585 10.4489 6.04466C10.5069 5.35798 10.8692 4.76779 11.5774 4.45615L10.7718 2.62557C9.33331 3.25858 8.56988 4.5278 8.45599 5.87634C8.34416 7.20035 8.85147 8.59434 9.88927 9.61909L11.2945 8.19596ZM25.1458 9.6595C26.1947 8.62703 26.7028 7.22034 26.5875 5.88578C26.4702 4.5278 25.7001 3.24894 24.2536 2.61024L23.4458 4.43982C24.1641 4.75699 24.5346 5.35901 24.5949 6.05794C24.6574 6.7803 24.3804 7.60657 23.7428 8.23414L25.1458 9.6595ZM22.6257 19.3847C21.4362 18.2101 21.4362 16.2899 22.6257 15.1153L21.2205 13.6922C19.2379 15.6498 19.2379 18.8502 21.2205 20.8078L22.6257 19.3847ZM30.5098 23.2651C30.1926 23.9451 29.6117 24.2928 28.9351 24.3459C28.2347 24.4008 27.4332 24.1317 26.8171 23.5234L25.4119 24.9465C26.425 25.9469 27.7903 26.4418 29.0914 26.3398C30.4163 26.2358 31.6716 25.5056 32.3223 24.1106L30.5098 23.2651ZM32.3335 10.4023C31.6738 9.00968 30.4133 8.28041 29.0851 8.17624C27.7794 8.07384 26.4096 8.5683 25.393 9.57214L26.7982 10.9953C27.4163 10.385 28.2218 10.1147 28.9287 10.1701C29.6129 10.2238 30.2022 10.5749 30.5261 11.2585L32.3335 10.4023ZM30.4552 4.57355C29.7576 5.26244 29.7431 6.34498 30.3345 7.06693L31.8817 5.79948C31.9146 5.83972 31.9311 5.92697 31.8605 5.99668L30.4552 4.57355ZM33.9167 5.65844C33.9167 3.98764 31.9015 3.14546 30.7126 4.31939L32.1179 5.74253C32.1091 5.7512 32.0846 5.76727 32.0511 5.77292C32.023 5.77765 32.0023 5.77293 31.9893 5.76747C31.9762 5.76202 31.9583 5.75062 31.942 5.72731C31.9225 5.69952 31.9167 5.67079 31.9167 5.65844H33.9167ZM31.9167 5.87889C31.9167 5.86012 31.9206 5.83475 31.931 5.80828C31.9411 5.7828 31.9534 5.7657 31.9614 5.75667C31.9689 5.74823 31.9715 5.74788 31.9652 5.75173C31.9589 5.75559 31.9472 5.76145 31.9305 5.76643C31.9138 5.77139 31.8964 5.77421 31.8802 5.77483C31.8641 5.77544 31.8533 5.77373 31.8484 5.77257C31.8438 5.77149 31.847 5.77156 31.8551 5.77643C31.864 5.78176 31.8738 5.7899 31.8817 5.79948L30.3345 7.06693C30.9249 7.78761 31.8375 7.88073 32.5008 7.68338C33.1687 7.48468 33.9167 6.88013 33.9167 5.87889H31.9167ZM33.9167 28.6663C33.9167 27.6731 33.1754 27.0733 32.5133 26.8768C31.8558 26.6816 30.9511 26.7757 30.3672 27.493L31.9183 28.7556C31.9094 28.7665 31.8982 28.7759 31.8876 28.7823C31.8778 28.7882 31.8727 28.7891 31.8751 28.7885C31.878 28.7879 31.8866 28.7863 31.9005 28.7868C31.9144 28.7873 31.9297 28.7898 31.9443 28.7941C31.959 28.7985 31.9687 28.8035 31.9733 28.8063C31.9778 28.809 31.9737 28.8074 31.965 28.7976C31.9558 28.7872 31.9425 28.7686 31.9319 28.7416C31.9209 28.7136 31.9167 28.6867 31.9167 28.6663H33.9167ZM30.7396 30.2072C31.9185 31.3713 33.9167 30.5362 33.9167 28.8794H31.9167C31.9167 28.8636 31.9235 28.8318 31.9448 28.8015C31.9629 28.7757 31.9832 28.7624 31.999 28.7558C32.0148 28.7492 32.0385 28.7441 32.0696 28.7493C32.1061 28.7555 32.1335 28.773 32.1448 28.7841L30.7396 30.2072ZM31.8962 28.5386C31.9718 28.6132 31.9563 28.709 31.9183 28.7556L30.3672 27.493C29.784 28.2095 29.8008 29.2802 30.491 29.9617L31.8962 28.5386ZM15.4236 22.2268C16.5907 21.0744 18.467 21.0729 19.636 22.2235L21.0389 20.7981C19.0907 18.8805 15.9636 18.883 14.0184 20.8037L15.4236 22.2268ZM11.5602 30.1164C10.8475 29.7955 10.4804 29.1935 10.4217 28.4959C10.361 27.7754 10.6376 26.9527 11.2712 26.3271L9.86596 24.9039C8.82352 25.9333 8.31674 27.3334 8.4287 28.6637C8.54259 30.017 9.30399 31.2939 10.7391 31.94L11.5602 30.1164ZM24.3853 31.9028C25.8086 31.2562 26.5593 29.987 26.6658 28.643C26.7703 27.323 26.2603 25.9375 25.2256 24.919L23.8226 26.3444C24.4517 26.9636 24.7282 27.7757 24.672 28.4851C24.6177 29.1706 24.2602 29.7629 23.558 30.0819L24.3853 31.9028ZM30.3876 30C29.7154 29.3384 28.6738 29.3154 27.9648 29.8875L29.2206 31.444C29.1639 31.4898 29.0594 31.499 28.9846 31.4254L30.3876 30ZM29.3215 33.4C30.9781 33.4 31.8009 31.3911 30.6203 30.2291L29.2173 31.6544C29.2038 31.6412 29.1844 31.611 29.1773 31.5713C29.1712 31.5372 29.1766 31.5105 29.1841 31.4922C29.1915 31.4739 29.2065 31.4512 29.2347 31.4311C29.2676 31.4079 29.3026 31.4 29.3215 31.4V33.4ZM5.91606 33.4C6.8847 33.4 7.47307 32.6818 7.66626 32.0353C7.85788 31.3941 7.76466 30.5144 7.06708 29.9434L5.80032 31.4911C5.78639 31.4797 5.77436 31.4654 5.76576 31.4512C5.75761 31.4376 5.75496 31.4282 5.75439 31.4257C5.7541 31.4245 5.75669 31.4403 5.74999 31.4627C5.74305 31.4859 5.7379 31.4787 5.76278 31.4568C5.77678 31.4445 5.79908 31.4292 5.82974 31.4172C5.86133 31.4048 5.89192 31.4 5.91606 31.4V33.4ZM6.0639 31.4689C5.97576 31.5559 5.86038 31.5402 5.80032 31.4911L7.06708 29.9434C6.37171 29.3742 5.331 29.3819 4.65867 30.0457L6.0639 31.4689ZM4.53173 29.9499C5.21141 29.2809 5.23324 28.227 4.65785 27.5189L3.10562 28.78C3.05707 28.7203 3.04449 28.6075 3.12875 28.5246L4.53173 29.9499ZM1.1875 28.8608C1.1875 30.4886 3.14956 31.3104 4.30963 30.1685L2.90665 28.7432C2.92288 28.7272 2.95608 28.707 2.99839 28.7C3.03531 28.6938 3.06502 28.6997 3.08621 28.7086C3.10739 28.7174 3.13245 28.7345 3.15395 28.7651C3.17858 28.8002 3.1875 28.838 3.1875 28.8608H1.1875ZM3.1875 28.6687C3.1875 28.6915 3.18292 28.721 3.17093 28.7517C3.15929 28.7815 3.14435 28.8032 3.13245 28.8168C3.11134 28.8409 3.10486 28.8353 3.12863 28.8283C3.15166 28.8214 3.168 28.824 3.16749 28.8239C3.1654 28.8234 3.15642 28.8209 3.14345 28.813C3.12974 28.8047 3.11625 28.7931 3.10562 28.78L4.65785 27.5189C4.08679 26.816 3.20351 26.7191 2.55773 26.9115C1.90656 27.1054 1.1875 27.6972 1.1875 28.6687H3.1875ZM12.411 15.112C13.605 16.2873 13.605 18.2127 12.411 19.388L13.814 20.8134C15.804 18.8546 15.804 15.6454 13.814 13.6866L12.411 15.112ZM4.53567 11.2383C4.85657 10.5643 5.43723 10.2202 6.11235 10.169C6.81076 10.116 7.60836 10.3847 8.22228 10.989L9.62527 9.56365C8.61572 8.56996 7.25743 8.07636 5.96102 8.17473C4.64131 8.27488 3.38821 8.99585 2.72988 10.3786L4.53567 11.2383ZM4.3366 4.35801C3.16651 3.20629 1.1875 4.0352 1.1875 5.67703H3.1875C3.1875 5.69628 3.17964 5.73102 3.15676 5.76364C3.137 5.79181 3.11437 5.80693 3.09593 5.81465C3.07749 5.82238 3.05084 5.8279 3.01691 5.82222C2.97761 5.81564 2.94734 5.79687 2.93362 5.78337L4.3366 4.35801ZM3.16239 6.00855C3.08154 5.92897 3.09711 5.82525 3.13978 5.77337L4.68457 7.04365C5.26997 6.33174 5.25521 5.2622 4.56537 4.58319L3.16239 6.00855ZM4.71472 4.50962C5.39245 5.17882 6.43836 5.18474 7.13916 4.624L5.88966 3.06236C5.9376 3.024 6.03719 3.00475 6.11996 3.08648L4.71472 4.50962ZM36 1.04166C36 -0.0859151 35.0859 -1 33.9583 -1V1C33.9813 1 34 1.01865 34 1.04166H36ZM1.1875 5.87354C1.1875 6.85014 1.9092 7.44748 2.56513 7.6453C3.21583 7.84154 4.10576 7.74754 4.68457 7.04365L3.13978 5.77337C3.14936 5.76171 3.16154 5.75143 3.17371 5.74413C3.18514 5.73728 3.19239 5.7355 3.19265 5.73544C3.19277 5.73541 3.1914 5.73574 3.18849 5.73601C3.18558 5.73628 3.18152 5.73645 3.17645 5.73625C3.16582 5.73583 3.15395 5.7339 3.14261 5.73048C3.1312 5.72704 3.12443 5.72334 3.12244 5.72211C3.12049 5.7209 3.12658 5.72425 3.13664 5.73576C3.14721 5.74786 3.16108 5.76788 3.17198 5.79588C3.18325 5.8248 3.1875 5.85247 3.1875 5.87354H1.1875ZM29.117 31.4C29.1385 31.4 29.1669 31.4043 29.1965 31.416C29.2253 31.4273 29.2458 31.4416 29.2581 31.4526C29.2699 31.4629 29.2732 31.4692 29.2719 31.4671C29.2706 31.465 29.2668 31.4579 29.2633 31.4459C29.2599 31.4341 29.2579 31.4216 29.2576 31.4104C29.2572 31.3991 29.2585 31.393 29.2586 31.3925C29.2587 31.3922 29.257 31.3992 29.2502 31.4104C29.2429 31.4224 29.2325 31.4345 29.2206 31.444L27.9648 29.8875C27.2525 30.4622 27.1526 31.3559 27.3442 32.009C27.5374 32.6675 28.1327 33.4 29.117 33.4V31.4ZM33.9583 35.6C35.0859 35.6 36 34.6859 36 33.5583H34C34 33.5813 33.9813 33.6 33.9583 33.6V35.6ZM5.98404 3.1C5.96246 3.1 5.93439 3.09559 5.90534 3.08415C5.87725 3.0731 5.85758 3.05921 5.84611 3.04908C5.83523 3.03947 5.83262 3.03415 5.83451 3.03723C5.83642 3.04035 5.84064 3.04841 5.84441 3.06116C5.84817 3.07384 5.85022 3.08694 5.85063 3.0986C5.85082 3.10417 5.85061 3.10865 5.85029 3.11191C5.85013 3.11351 5.84996 3.11473 5.84982 3.11556C5.84968 3.11639 5.84958 3.1168 5.84958 3.11679C5.84959 3.11678 5.8497 3.11633 5.84997 3.11546C5.85025 3.1146 5.85071 3.1133 5.85139 3.11162C5.85278 3.10822 5.85508 3.10337 5.85864 3.09754C5.86637 3.08492 5.87728 3.07226 5.88966 3.06236L7.13916 4.624C7.85971 4.04748 7.95561 3.14676 7.7621 2.49329C7.56725 1.83527 6.97044 1.1 5.98404 1.1V3.1ZM5.77376 1.1C4.11792 1.1 3.29408 3.10683 4.47232 4.27026L5.87756 2.84713C5.8909 2.8603 5.91017 2.89031 5.91719 2.92977C5.92323 2.96369 5.91788 2.99021 5.91043 3.00836C5.90298 3.02651 5.88815 3.04914 5.86002 3.06904C5.8273 3.09219 5.79251 3.1 5.77376 3.1V1.1ZM4.43117 30.2704C3.26804 31.4189 4.08131 33.4 5.71591 33.4V31.4C5.73998 31.4 5.77941 31.4094 5.81587 31.4352C5.84774 31.4577 5.86541 31.484 5.87456 31.5063C5.88372 31.5286 5.88963 31.5598 5.8828 31.5982C5.87497 31.6422 5.85353 31.6766 5.83641 31.6935L4.43117 30.2704ZM29.1754 3.08906C29.1873 3.09877 29.1972 3.11071 29.2039 3.12182C29.2101 3.13215 29.2111 3.13765 29.2106 3.13538C29.21 3.13278 29.2084 3.12434 29.2089 3.11057C29.2094 3.09678 29.2118 3.08171 29.2161 3.06733C29.2203 3.05288 29.2252 3.04342 29.2277 3.03923C29.2303 3.03506 29.2283 3.03973 29.2178 3.049C29.2068 3.0588 29.1873 3.07274 29.1591 3.08392C29.1299 3.09549 29.1015 3.1 29.0796 3.1V1.1C28.0869 1.1 27.4917 1.84381 27.2977 2.50176C27.105 3.15521 27.1975 4.05684 27.9114 4.63901L29.1754 3.08906ZM-1 33.5583C-1 34.6859 -0.0859142 35.6 1.04167 35.6V33.6C1.01865 33.6 1 33.5813 1 33.5583H-1ZM8.24547 23.4882C7.62351 24.1004 6.81427 24.3684 6.10497 24.3092C5.41814 24.2519 4.82647 23.8952 4.5039 23.2045L2.69178 24.0508C3.34594 25.4515 4.60631 26.1911 5.9386 26.3023C7.24841 26.4116 8.62536 25.9206 9.64845 24.9135L8.24547 23.4882ZM19.636 12.2765C18.467 13.4271 16.5907 13.4256 15.4236 12.2732L14.0184 13.6963C15.9636 15.617 19.0907 15.6195 21.0389 13.7019L19.636 12.2765ZM1.04167 -1C-0.0859147 -1 -1 -0.0859143 -1 1.04167H1C1 1.01865 1.01866 1 1.04167 1V-1Z" fill="white" mask="url(#path-1-inside-1)"/>
</svg>
