<svg width="43" height="28" viewBox="0 0 43 28" fill="none" xmlns="http://www.w3.org/2000/svg">
<mask id="path-1-inside-1" fill="white">
<path fill-rule="evenodd" clip-rule="evenodd" d="M7.4 1.1C7.4 1.7 7.8 2.2 8.4 2.2H37.5L38.4719 10.6H13.1C7.7 10.6 4.4 12.7 2.4 15.6C0.5 18.5 0 22.4 0 26.2V27.3H1H41.1401C41.2539 27.32 41.3748 27.3209 41.5 27.3H42.5L42.4153 26.2838C42.4154 26.2238 42.4104 26.1624 42.4 26.1L39.4 1C39.4 0.4 38.9 0 38.4 0H8.4C7.9 0 7.4 0.5 7.4 1.1ZM38.9753 14.9505L40.1727 25.3H2.1C2.2 22.2 2.7 19.2 4.2 16.9C5.7 14.4 8.5 12.8 13.1 12.8H38.7L38.9753 14.9505ZM21.2 22.4C22.8 22.4 24 21.1 24 19.5C24 17.9 22.7 16.6 21.2 16.6C19.6 16.6 18.4 17.9 18.4 19.5C18.4 21.1 19.7 22.4 21.2 22.4Z"/>
</mask>
<path fill-rule="evenodd" clip-rule="evenodd" d="M7.4 1.1C7.4 1.7 7.8 2.2 8.4 2.2H37.5L38.4719 10.6H13.1C7.7 10.6 4.4 12.7 2.4 15.6C0.5 18.5 0 22.4 0 26.2V27.3H1H41.1401C41.2539 27.32 41.3748 27.3209 41.5 27.3H42.5L42.4153 26.2838C42.4154 26.2238 42.4104 26.1624 42.4 26.1L39.4 1C39.4 0.4 38.9 0 38.4 0H8.4C7.9 0 7.4 0.5 7.4 1.1ZM38.9753 14.9505L40.1727 25.3H2.1C2.2 22.2 2.7 19.2 4.2 16.9C5.7 14.4 8.5 12.8 13.1 12.8H38.7L38.9753 14.9505ZM21.2 22.4C22.8 22.4 24 21.1 24 19.5C24 17.9 22.7 16.6 21.2 16.6C19.6 16.6 18.4 17.9 18.4 19.5C18.4 21.1 19.7 22.4 21.2 22.4Z" fill="white"/>
<path d="M37.5 2.2L38.4934 2.08506L38.391 1.2H37.5V2.2ZM38.4719 10.6V11.6H39.5943L39.4653 10.4851L38.4719 10.6ZM2.4 15.6L1.57679 15.0323L1.57005 15.042L1.56354 15.052L2.4 15.6ZM0 27.3H-1V28.3H0V27.3ZM41.1401 27.3L41.3129 26.315L41.2272 26.3H41.1401V27.3ZM41.5 27.3V26.3H41.4172L41.3356 26.3136L41.5 27.3ZM42.5 27.3V28.3H43.5868L43.4965 27.217L42.5 27.3ZM42.4153 26.2838L41.4153 26.2823L41.4153 26.3246L41.4188 26.3668L42.4153 26.2838ZM42.4 26.1L41.4071 26.2187L41.4098 26.2416L41.4136 26.2644L42.4 26.1ZM39.4 1H38.4V1.05955L38.4071 1.11868L39.4 1ZM40.1727 25.3V26.3H41.2951L41.1661 25.1851L40.1727 25.3ZM38.9753 14.9505L39.9687 14.8355L39.9672 14.8235L38.9753 14.9505ZM2.1 25.3L1.10052 25.2678L1.06722 26.3H2.1V25.3ZM4.2 16.9L5.03761 17.4463L5.04785 17.4306L5.05749 17.4145L4.2 16.9ZM38.7 12.8L39.6919 12.673L39.5802 11.8H38.7V12.8ZM8.4 1.2C8.39143 1.2 8.39724 1.1988 8.40968 1.20454C8.41491 1.20695 8.41936 1.20973 8.42276 1.21229C8.42438 1.21352 8.42559 1.21457 8.42641 1.21533C8.42722 1.21609 8.42759 1.21652 8.42758 1.2165C8.42712 1.21597 8.4 1.18163 8.4 1.1H6.4C6.4 2.12268 7.12646 3.2 8.4 3.2V1.2ZM37.5 1.2H8.4V3.2H37.5V1.2ZM39.4653 10.4851L38.4934 2.08506L36.5066 2.31494L37.4785 10.7149L39.4653 10.4851ZM38.4719 9.6H13.1V11.6H38.4719V9.6ZM13.1 9.6C7.39286 9.6 3.7754 11.8443 1.57679 15.0323L3.22321 16.1677C5.0246 13.5557 8.00714 11.6 13.1 11.6V9.6ZM1.56354 15.052C-0.502728 18.2057 -1 22.354 -1 26.2H1C1 22.4461 1.50273 18.7943 3.23646 16.148L1.56354 15.052ZM-1 26.2V27.3H1V26.2H-1ZM0 28.3H1V26.3H0V28.3ZM1 28.3H41.1401V26.3H1V28.3ZM41.3356 26.3136C41.3269 26.3151 41.321 26.3153 41.3177 26.3153C41.316 26.3153 41.3148 26.3152 41.314 26.3152C41.3133 26.3151 41.3129 26.315 41.3129 26.315L40.9673 28.285C41.1957 28.325 41.4307 28.3253 41.6644 28.2864L41.3356 26.3136ZM41.5 28.3H42.5V26.3H41.5V28.3ZM43.4965 27.217L43.4119 26.2007L41.4188 26.3668L41.5035 27.383L43.4965 27.217ZM41.4136 26.2644C41.4151 26.2731 41.4153 26.279 41.4153 26.2823L43.4153 26.2852C43.4155 26.1686 43.4058 26.0518 43.3864 25.9356L41.4136 26.2644ZM38.4071 1.11868L41.4071 26.2187L43.3929 25.9813L40.3929 0.881323L38.4071 1.11868ZM38.4 1H40.4C40.4 -0.216147 39.3862 -1 38.4 -1V1ZM8.4 1H38.4V-1H8.4V1ZM8.4 1.1C8.4 1.0898 8.40203 1.07639 8.40901 1.05962C8.41639 1.04191 8.42796 1.02395 8.44204 1.00894C8.4565 0.993518 8.46672 0.988459 8.46554 0.989023C8.46415 0.989693 8.44205 1 8.4 1V-1C7.2879 -1 6.4 0.00949095 6.4 1.1H8.4ZM41.1661 25.1851L39.9686 14.8355L37.9819 15.0654L39.1794 25.4149L41.1661 25.1851ZM40.1727 24.3H2.1V26.3H40.1727V24.3ZM3.09948 25.3322C3.1977 22.2873 3.68984 19.5129 5.03761 17.4463L3.36239 16.3537C1.71016 18.8871 1.20229 22.1127 1.10052 25.2678L3.09948 25.3322ZM5.05749 17.4145C6.33071 15.2925 8.75138 13.8 13.1 13.8V11.8C8.24862 11.8 5.06929 13.5075 3.34251 16.3855L5.05749 17.4145ZM13.1 13.8H38.7V11.8H13.1V13.8ZM37.7081 12.927L37.9834 15.0774L39.9672 14.8235L39.6919 12.673L37.7081 12.927ZM23 19.5C23 20.5943 22.2023 21.4 21.2 21.4V23.4C23.3977 23.4 25 21.6057 25 19.5H23ZM21.2 17.6C22.1251 17.6 23 18.4294 23 19.5H25C25 17.3706 23.2749 15.6 21.2 15.6V17.6ZM19.4 19.5C19.4 18.4057 20.1977 17.6 21.2 17.6V15.6C19.0023 15.6 17.4 17.3943 17.4 19.5H19.4ZM21.2 21.4C20.2749 21.4 19.4 20.5706 19.4 19.5H17.4C17.4 21.6294 19.1251 23.4 21.2 23.4V21.4Z" fill="white" mask="url(#path-1-inside-1)"/>
</svg>
