<svg width="49" height="37" viewBox="0 0 49 37" fill="none" xmlns="http://www.w3.org/2000/svg">
<path fill-rule="evenodd" clip-rule="evenodd" d="M32.81 17.1799L25.0458 1.9L24.1083 0L23.1708 1.9L15.3869 17.2188L2.2331 11.2C1.2956 10.8 0.358099 10.8 0.0455985 11.4C-0.162735 11.9 0.358099 12.7 1.2956 13.2L14.3855 19.1895L10.1344 27.5556L1.2956 31.6C0.358099 32.1 -0.162735 32.9 0.0455985 33.4C0.358099 34 1.2956 34 2.2331 33.6L8.52624 30.7204L6.50411 34.7L5.77494 36.2H7.44161H40.6708H42.4416L41.7125 34.7L39.722 30.7828L45.8789 33.6C46.8164 34 47.7539 34 48.0664 33.4C48.2748 32.9 47.7539 32.1 46.8164 31.6L38.1138 27.618L33.8114 19.1507L46.8164 13.2C47.7539 12.7 48.2748 11.9 48.0664 11.4C47.7539 10.8 46.8164 10.8 45.8789 11.2L32.81 17.1799ZM30.879 18.0635L24.1083 4.7L17.3178 18.1023L24.056 21.1855L30.879 18.0635ZM31.8781 20.0353L26.7102 22.4L34.9974 26.192L31.8781 20.0353ZM36.5995 29.354L24.056 23.6145L11.6486 29.2917L9.21244 34.1H39.0041L36.5995 29.354ZM13.2507 26.1297L21.4018 22.4L16.3188 20.0742L13.2507 26.1297Z" fill="white"/>
</svg>
