<svg width="43" height="36" viewBox="0 0 43 36" fill="none" xmlns="http://www.w3.org/2000/svg">
<path fill-rule="evenodd" clip-rule="evenodd" d="M41.7869 0.0154261C41.2661 -0.0845739 40.6411 0.315426 40.5369 0.815426L39.4338 5.78174C39.3427 6.19195 38.838 6.32887 38.5582 6.01542L38.5581 6.0154C37.6206 4.9154 36.6831 3.91541 35.4331 3.91541C34.2645 3.91541 33.3691 4.87679 32.4914 5.81908L32.4907 5.81986C32.4298 5.88524 32.369 5.95053 32.3081 6.0154L32.3081 6.01542C31.6831 6.71541 31.0581 7.41539 30.7456 7.41539C30.4331 7.41539 29.8081 6.71539 29.1831 6.0154C28.2456 4.9154 27.3081 3.91541 26.0581 3.91541C24.8895 3.91541 23.9941 4.87679 23.1164 5.81908C23.0553 5.88472 22.9942 5.95027 22.9331 6.0154C22.3081 6.71539 21.6831 7.41539 21.3706 7.41539C21.0581 7.41539 20.4331 6.71539 19.8081 6.0154C18.7665 5.0154 17.6206 3.91541 16.3706 3.91541C15.2021 3.91541 14.3066 4.87679 13.4289 5.81908L13.4288 5.81917C13.3677 5.88478 13.3067 5.9503 13.2456 6.0154C12.6206 6.71539 11.9956 7.41539 11.6831 7.41539C11.3706 7.41539 10.7456 6.7154 10.1207 6.0154L10.1206 6.0154C9.18315 4.9154 8.24565 3.91541 6.99565 3.91541C5.82705 3.91541 4.93158 4.87679 4.0539 5.81908L4.05383 5.81915L4.05344 5.81958C3.99245 5.88505 3.93155 5.95044 3.87065 6.0154C3.66285 6.24813 3.28368 6.14712 3.21603 5.84254L2.0994 0.815426C1.99524 0.315426 1.4744 -0.0845739 0.849402 0.0154261C0.328569 0.115426 -0.0880978 0.715426 0.0160689 1.21543L6.26607 29.2154C6.37024 29.7154 6.7869 30.1154 7.30774 30.1154H35.3286C35.8494 30.1154 36.2661 29.8154 36.3702 29.3154L42.6202 1.31543C42.7244 0.715426 42.4119 0.115426 41.7869 0.0154261ZM5.35406 7.61171C4.53258 8.49366 4.08172 9.73996 4.34307 10.9165L7.44524 24.8828C7.8518 26.7131 9.47513 28.0154 11.3501 28.0154H31.2862C33.1612 28.0154 34.7845 26.7131 35.1911 24.8828L38.2441 11.1378C38.521 9.89125 38.0103 8.58859 37.1743 7.62344C37.0617 7.49347 36.9529 7.34013 36.8585 7.19638C36.4516 6.57652 35.9213 6.0154 35.6415 6.0154C35.329 6.0154 34.704 6.71539 34.079 7.41539C34.0181 7.48033 33.9572 7.54569 33.8962 7.61115L33.8957 7.61171C33.018 8.554 32.1226 9.51538 30.954 9.51538C29.8006 9.51538 28.9132 8.66397 28.0465 7.66821C27.9008 7.50084 27.7429 7.3444 27.5761 7.19803C27.4105 7.05263 27.2545 6.91044 27.1091 6.77794C26.6341 6.34495 26.2726 6.0154 26.0581 6.0154C25.7456 6.0154 25.1206 6.71539 24.4956 7.41539C24.4346 7.48051 24.3735 7.54606 24.3124 7.6117C23.4347 8.55399 22.5392 9.51538 21.3706 9.51538C20.1206 9.51538 19.1831 8.51539 18.2456 7.41539C18.0935 7.26929 17.9458 7.1232 17.8046 6.98346C17.2692 6.45369 16.8263 6.0154 16.579 6.0154C16.2665 6.0154 15.6415 6.71539 15.0165 7.41539C14.9555 7.48046 14.8945 7.54595 14.8334 7.61153L14.8333 7.61162L14.8332 7.61171C13.9555 8.554 13.0601 9.51538 11.8915 9.51538C10.6415 9.51538 9.70398 8.51539 8.76648 7.41539C8.61429 7.26929 8.46665 7.12319 8.32543 6.98346L8.32542 6.98345C7.79003 6.45369 7.34709 6.0154 7.09981 6.0154C6.78731 6.0154 6.16231 6.71539 5.53731 7.41539C5.47628 7.48049 5.41525 7.54602 5.35413 7.61164L5.35406 7.61171ZM7.72451 35.5154C7.0995 35.5154 6.68284 35.0154 6.68284 34.4154C6.68284 33.8154 7.20367 33.3154 7.72451 33.3154H35.537C36.162 33.3154 36.5787 33.8154 36.5787 34.4154C36.5787 35.0154 36.0578 35.5154 35.537 35.5154H7.72451ZM15.2467 13.5666C15.0635 13.6236 14.9447 13.7921 14.9447 13.984C14.9447 14.4155 14.9782 14.7771 15.045 15.0687C15.1265 15.4238 15.4688 15.6202 15.8324 15.6406L15.951 15.6473C16.2887 15.6662 16.6181 15.4996 16.7139 15.1753C16.7304 15.1194 16.7459 15.0611 16.7603 15.0004C16.8298 14.708 17.0522 14.46 17.3527 14.46C17.8007 14.46 18.1367 14.5674 18.3607 14.782C18.5847 14.9967 18.6967 15.342 18.6967 15.818C18.6967 16.7327 18.1694 17.2414 17.1147 17.344L16.4662 17.4023C16.1379 17.4318 15.8975 17.7247 15.9326 18.0525C15.967 18.3737 16.2534 18.6062 16.576 18.5911C16.7913 18.5811 17.0128 18.576 17.2407 18.576C18.3327 18.576 18.8787 19.136 18.8787 20.256C18.8787 21.2454 18.1927 21.74 16.8207 21.74C16.4701 21.74 16.1067 21.6943 15.7305 21.6028C15.3553 21.5116 14.9564 21.7129 14.8566 22.086C14.7772 22.3827 14.9155 22.696 15.2067 22.7935C15.3766 22.8504 15.5693 22.9053 15.7847 22.958C16.2514 23.0607 16.6714 23.112 17.0447 23.112C18.23 23.112 19.196 22.8507 19.9427 22.328C20.6894 21.8054 21.0627 21.0167 21.0627 19.962C21.0627 18.919 20.5335 18.1988 19.4751 17.8016C19.4368 17.7872 19.4107 17.7507 19.4107 17.7097C19.4107 17.6742 19.4303 17.6416 19.4611 17.6239C19.7852 17.4382 20.067 17.1722 20.3067 16.826C20.5587 16.4527 20.6847 16.056 20.6847 15.636C20.6847 15.2067 20.5914 14.824 20.4047 14.488C20.2274 14.1427 19.98 13.886 19.6627 13.718C19.3454 13.5407 19.0187 13.4147 18.6827 13.34C18.3467 13.2654 17.9734 13.228 17.5627 13.228C17.1614 13.228 16.6854 13.2747 16.1347 13.368C15.7686 13.4301 15.4726 13.4963 15.2467 13.5666ZM22.8648 22.006C23.3688 22.7434 24.2368 23.112 25.4688 23.112C26.7101 23.112 27.6154 22.6967 28.1848 21.866C28.7634 21.0354 29.0528 19.738 29.0528 17.974C29.0528 16.21 28.8008 14.978 28.2968 14.278C27.8021 13.578 26.9294 13.228 25.6788 13.228C24.4374 13.228 23.5321 13.6247 22.9628 14.418C22.4028 15.2114 22.1228 16.49 22.1228 18.254C22.1228 20.018 22.3701 21.2687 22.8648 22.006ZM24.2228 18.072C24.2228 16.7187 24.3068 15.79 24.4748 15.286C24.6428 14.782 25.0021 14.53 25.5528 14.53C26.1128 14.53 26.4861 14.8007 26.6728 15.342C26.8594 15.8834 26.9528 16.9007 26.9528 18.394C26.9528 19.8874 26.8268 20.844 26.5748 21.264C26.3601 21.628 26.0288 21.81 25.5808 21.81C25.0488 21.81 24.6894 21.5254 24.5028 20.956C24.3161 20.3867 24.2228 19.4254 24.2228 18.072Z" fill="white"/>
</svg>
