<svg width="179" height="68" viewBox="0 0 179 68" fill="none" xmlns="http://www.w3.org/2000/svg">
<path d="M174.92 27.1566L174.427 21.545C174.279 19.8452 173.452 18.5139 172.415 18.3091L167.06 17.2851C167.035 17.2851 167.023 17.2646 166.998 17.2646C166.973 17.2646 166.949 17.2646 166.924 17.2646C166.912 17.2646 166.912 17.2646 166.899 17.2646C166.875 17.2646 166.85 17.2646 166.825 17.2851C166.566 17.3466 166.357 17.6333 166.258 18.0019C166.11 18.4115 166.036 18.9031 166.011 19.4356C166.011 19.538 165.999 19.6608 165.999 19.7632L165.221 18.8826C165.246 18.5139 165.295 18.1658 165.394 17.8381C165.394 17.8176 165.406 17.8176 165.406 17.7971C165.456 17.6743 165.517 17.5514 165.579 17.449C165.209 17.5719 164.814 17.7562 164.419 17.961C162.679 21.6679 162.136 19.6404 162.136 19.6404C162.025 19.7428 161.927 19.8452 161.828 19.9476C161.655 20.1319 161.606 20.2752 161.569 20.5005C161.556 20.5415 161.556 20.562 161.556 20.6029C161.556 20.6234 161.556 20.6234 161.556 20.6439C161.532 21.0535 161.569 21.4631 161.63 21.8522L161.606 21.9546C161.593 21.9137 161.581 21.8932 161.556 21.8522C161.396 21.5041 161.137 21.3402 160.89 21.3812C160.89 21.2993 160.902 21.2378 160.902 21.1559C160.902 21.1149 160.915 21.0535 160.927 20.992C160.779 21.1968 160.643 21.4017 160.532 21.6065L160.52 21.6269L156.201 27.218C156.189 27.2385 156.176 27.2385 156.176 27.2385C156.152 27.259 156.115 27.259 156.09 27.259C156.053 27.2385 156.016 27.1976 156.004 27.1361L154.659 21.8317L153.289 22.7943L154.646 28.0987C154.844 28.8565 155.251 29.4504 155.732 29.6552C156.201 29.86 156.719 29.6961 157.139 29.1637L161.026 24.146C161.162 24.3918 161.273 24.699 161.347 25.0266C161.384 25.1905 161.421 25.3748 161.458 25.5591C161.816 27.0952 162.383 28.9589 162.975 30.3105C163.062 30.5153 163.161 30.7406 163.235 30.9454C163.284 30.6997 163.235 30.4334 163.173 30.1467L162.297 26.747L166.344 25.0676L166.998 27.5048C167.109 27.9144 167.381 28.1396 167.64 28.0577L167.776 28.0168C167.763 27.7096 167.751 27.4024 167.751 27.0952C167.763 26.5217 167.763 25.9892 167.751 25.4772C167.751 25.0471 167.739 24.658 167.751 24.2894C167.776 22.9377 167.702 21.7908 167.541 20.8282C167.479 20.5005 167.467 20.1524 167.492 19.8247L172.267 20.7463C172.637 20.8282 172.933 21.2993 172.983 21.8932L173.489 27.5252L174.92 27.1566Z" fill="white"/>
<path d="M151.635 16.3433C151.648 16.3229 151.672 16.3229 151.685 16.3229C151.722 16.3229 151.746 16.2819 151.759 16.2409C151.771 16.2 151.771 16.1385 151.759 16.0976L151.709 15.8928C151.66 15.7085 151.722 15.4832 151.833 15.4012C151.857 15.3808 151.882 15.3808 151.907 15.3808C151.944 15.3808 151.968 15.3398 151.993 15.2988C152.005 15.2579 152.018 15.1964 152.005 15.135L151.981 15.0121C151.931 14.8073 151.993 14.582 152.117 14.4796C152.24 14.3977 152.388 14.4796 152.437 14.6844L152.45 14.7459C152.462 14.7868 152.487 14.8278 152.511 14.8278C152.536 14.8278 152.573 14.8278 152.585 14.7868C152.61 14.7459 152.635 14.7049 152.672 14.6844C152.795 14.6025 152.943 14.6844 152.993 14.8892C153.474 16.7529 153.548 17.1011 153.659 17.4902C153.684 17.5722 153.721 17.6131 153.77 17.6131C153.819 17.6131 153.869 17.5722 153.881 17.4902C154.079 16.7325 154.214 16.3638 154.214 16.3433C154.276 16.159 154.424 16.0976 154.523 16.2205C154.634 16.3229 154.671 16.5686 154.597 16.7325C154.597 16.7325 154.473 17.0806 154.288 17.777C154.14 18.3709 154.017 18.9853 153.93 19.6202C153.881 20.0298 153.758 20.3575 153.56 20.5213C153.128 20.9104 152.536 20.4189 152.228 19.4154C151.956 18.5142 152.351 20.0707 151.512 16.7529C151.487 16.6096 151.537 16.4048 151.635 16.3433Z" fill="#9FC8D6"/>
<path d="M154.078 19.9886C153.93 19.3947 153.511 19.1079 153.153 19.3537C152.795 19.5995 152.622 20.2958 152.77 20.8897L153.141 22.3643C153.684 21.9956 153.906 21.8318 154.449 21.4427L154.078 19.9886Z" fill="#9FC8D6"/>
<path d="M173.661 29.5326C173.723 30.2289 174.118 30.6999 174.538 30.5771C174.957 30.4747 175.241 29.8193 175.167 29.123L175.007 27.4231C174.39 27.5869 174.118 27.6484 173.501 27.8122L173.661 29.5326Z" fill="#9FC8D6"/>
<path d="M178.19 62.26C178.178 62.0347 178.129 61.8504 178.042 61.6866C177.993 61.5842 177.919 61.4818 177.845 61.4203C177.45 61.0722 177.055 60.9493 176.697 61.0926L175.957 60.0891L174.785 62.4648L175.315 63.2021C175.056 64.0008 174.933 64.861 174.945 65.7007C174.945 66.1922 175.007 66.6837 175.105 67.1548C175.13 67.2572 175.167 67.3596 175.217 67.4415C175.303 67.5849 175.402 67.6668 175.525 67.6873C175.71 67.7077 175.883 67.5849 176.006 67.3186L177.993 63.3045C178.141 62.9768 178.215 62.6082 178.19 62.26Z" fill="white"/>
<path d="M159.977 58.4709L160.236 56.9349L158.447 56.1157L158.262 57.2217C157.719 57.1602 157.188 57.3036 156.732 57.6517C156.46 57.8565 156.213 58.1433 155.991 58.4914C155.942 58.5733 155.905 58.6758 155.88 58.7782C155.831 58.9625 155.831 59.1673 155.868 59.3516C155.93 59.6383 156.078 59.8636 156.263 59.9455L159.286 61.3382C159.508 61.4406 159.73 61.3996 159.915 61.2153C160.026 61.0924 160.113 60.9491 160.174 60.7647C160.211 60.6418 160.236 60.4985 160.248 60.3551C160.286 59.5974 160.187 58.9625 159.977 58.4709Z" fill="white"/>
<path d="M165.974 22.9999L165.999 22.1596C165.999 22.1391 165.999 22.0981 165.986 22.0981C165.974 22.0776 165.974 22.0776 165.962 22.0776C165.962 22.426 165.949 22.7745 165.949 23.1229C165.949 23.0819 165.962 23.0409 165.974 22.9999Z" fill="#E7DEE4"/>
<path d="M165.147 22.2004C165.147 22.2004 165.135 22.2004 165.147 22.2004C165.11 22.2209 165.098 22.2619 165.098 22.3029L165.086 23.1432C165.086 23.1637 165.086 23.1842 165.098 23.2047C165.11 23.2252 165.123 23.2252 165.135 23.2252C165.135 22.8972 165.147 22.5488 165.147 22.2004Z" fill="#E7DEE4"/>
<path d="M162.618 24.8623L162.358 24.2074C162.346 24.1665 162.321 24.146 162.297 24.1665C162.321 24.2483 162.358 24.3302 162.383 24.3916C162.395 24.4325 162.507 24.6781 162.605 24.9646C162.605 24.9442 162.618 24.9442 162.618 24.9237C162.63 24.9032 162.618 24.8828 162.618 24.8623Z" fill="#E7DEE4"/>
<path d="M174.562 57.775L172.119 54.4572C170.959 52.8802 170.071 50.8322 169.552 48.4974L167.8 40.7764C168.047 40.6535 168.294 40.5102 168.565 40.3258C169.577 39.6295 170.182 38.626 170.379 37.3152C170.502 36.496 170.441 35.6768 170.305 34.9805C170.108 33.9565 169.713 33.0758 169.194 32.441L168.96 32.1542L168.787 31.4579L168.442 30.0857L168.281 28.1811C168.281 28.1606 168.281 28.1401 168.281 28.1196C168.257 27.9763 168.17 27.8739 168.084 27.9148L167.948 27.9558L167.763 28.0172L167.627 28.0582C167.368 28.1401 167.097 27.9148 166.986 27.5052L165.949 23.614H165.937C165.937 23.5525 165.937 23.4706 165.937 23.4092C165.937 23.4092 165.937 23.4092 165.924 23.4092L165.135 23.5525C165.135 23.6345 165.135 23.7164 165.135 23.8188H165.11C163.531 24.9042 164.382 24.3103 162.803 25.4162C162.778 25.3548 162.753 25.2934 162.729 25.2114L162.716 25.2319L162.087 26.0716C162.112 26.133 162.136 26.215 162.161 26.2559L163.16 30.1267C163.222 30.4134 163.271 30.6797 163.222 30.9254C163.222 30.9459 163.21 30.9869 163.21 31.0073L163.136 31.2736L163.111 31.376C163.074 31.4784 163.099 31.6217 163.148 31.7241L163.642 32.7482L163.888 33.2602L164.407 35.3287L164.357 35.9226C164.345 36.025 164.345 36.1479 164.357 36.2503C164.357 36.2708 164.37 36.3117 164.37 36.3322C164.419 36.7008 164.481 37.0695 164.567 37.4176L164.579 37.4791C164.691 37.9297 164.802 38.3802 164.925 38.7898L162.605 40.9607C161.235 42.251 160.248 44.34 159.816 46.859L158.805 52.8802H158.792C158.73 52.8597 158.681 52.9007 158.656 53.0031L158.545 53.6789L158.299 55.1125L158.188 55.7884C158.175 55.8908 158.2 55.9727 158.262 56.0137C158.99 56.3414 159.705 56.6895 160.433 57.0172C160.495 57.0377 160.544 56.9967 160.569 56.8943L160.68 56.2185C160.396 56.0751 160.1 55.9522 159.816 55.8089C160.162 55.9727 160.433 56.0956 160.68 56.2185L160.927 54.7849L161.038 54.109C161.05 54.0066 161.026 53.9247 160.964 53.8837C160.458 53.6585 159.952 53.4127 159.434 53.1874C159.927 53.4127 160.384 53.638 160.952 53.8837L161.963 47.8626C162.223 46.2856 162.84 44.9953 163.703 44.1966L165.789 42.2305L167.504 49.7672C168.17 52.6959 169.293 55.2969 170.749 57.263L173.192 60.5808C173.674 59.5772 174.056 58.8195 174.562 57.775ZM163.469 28.0582C163.95 27.7305 164.197 27.5462 164.444 27.3823C164.197 27.5462 163.95 27.7305 163.469 28.0582ZM165.221 32.3181L165.986 31.7856V31.8061L165.221 32.3181Z" fill="url(#paint0_linear)"/>
<path d="M176.068 59.5362L175.747 59.1061L175.056 58.1641L174.735 57.734C174.686 57.6725 174.624 57.6725 174.587 57.7545C174.106 58.717 173.637 59.6796 173.155 60.6422C173.118 60.7241 173.118 60.8265 173.168 60.8879L173.489 61.318L174.18 62.2601L174.501 62.6902C174.55 62.7516 174.612 62.7516 174.649 62.6697C175.327 61.2975 175.747 60.4374 176.08 59.782C176.117 59.7206 176.117 59.6182 176.068 59.5362Z" fill="url(#paint1_linear)"/>
<path d="M166.011 19.436C166.06 18.4325 166.258 17.4904 166.924 17.2651C166.529 17.2241 166.072 17.306 165.591 17.4699C165.517 17.5723 165.455 17.6952 165.418 17.818C165.283 18.2276 165.233 18.7397 165.221 19.2107C165.209 19.6408 165.209 20.0504 165.196 20.4805C165.184 20.9515 165.172 21.4226 165.172 21.8936L165.974 21.7503C165.961 20.9515 165.974 20.1938 166.011 19.436Z" fill="url(#paint2_linear)"/>
<path d="M165.937 23.1026C165.949 22.7542 165.949 22.4058 165.949 22.0574L165.159 22.2008C165.159 22.5492 165.147 22.8977 165.135 23.2461L165.937 23.1026C165.924 23.1026 165.924 23.1026 165.937 23.1026Z" fill="url(#paint3_linear)"/>
<path d="M161.556 24.7604L162.186 23.9207C162.186 23.9207 162.186 23.9207 162.198 23.9207C162.161 23.8388 162.136 23.7364 162.099 23.6544C161.902 23.1015 161.729 22.528 161.63 21.8932C161.569 21.4836 161.532 21.0739 161.556 20.6643C161.556 20.6234 161.556 20.5619 161.569 20.521C161.606 20.2957 161.655 20.1523 161.828 19.968C161.495 20.3162 161.186 20.6643 160.927 21.033C160.915 21.0944 160.915 21.1354 160.902 21.1968C160.816 22.0365 160.976 22.9376 161.211 23.7159C161.322 24.0436 161.445 24.3917 161.556 24.7604Z" fill="url(#paint4_linear)"/>
<path d="M161.655 25.0272C161.741 25.232 161.865 25.5392 161.976 25.8259L162.605 24.9862C162.605 24.9862 162.605 24.9862 162.618 24.9657C162.507 24.6995 162.408 24.4332 162.396 24.3923C162.371 24.3104 162.334 24.2284 162.309 24.167C162.309 24.167 162.309 24.167 162.297 24.167L161.655 25.0272Z" fill="url(#paint5_linear)"/>
<path d="M161.655 25.1492L161.914 25.8041C161.926 25.8451 161.963 25.8655 161.976 25.8451C161.865 25.5585 161.741 25.2515 161.655 25.0469C161.643 25.0469 161.643 25.1083 161.655 25.1492Z" fill="#E7DEE4"/>
<path d="M175.525 34.079C175.512 34.079 175.488 34.079 175.475 34.079C175.438 34.079 175.414 34.0995 175.389 34.1404C175.364 34.1814 175.352 34.2223 175.364 34.2838L175.389 34.4886C175.401 34.6934 175.315 34.8777 175.192 34.9187C175.167 34.9187 175.142 34.9187 175.117 34.9187C175.08 34.8982 175.056 34.9187 175.031 34.9596C175.006 35.0006 174.994 35.062 175.006 35.103L175.019 35.2259C175.043 35.4512 174.945 35.6355 174.809 35.6764C174.673 35.7174 174.55 35.5536 174.537 35.3488V35.2873C174.537 35.2464 174.513 35.2054 174.488 35.1849C174.463 35.1644 174.426 35.1644 174.402 35.2054C174.377 35.2464 174.34 35.2668 174.303 35.2668C174.167 35.3078 174.044 35.144 174.032 34.9391C173.859 32.9321 173.822 32.5634 173.785 32.1538C173.772 32.0719 173.735 32.0105 173.698 31.99C173.649 31.9695 173.6 31.99 173.563 32.0719C173.266 32.7273 173.069 33.0345 173.069 33.0345C172.983 33.1779 172.835 33.1779 172.748 33.0345C172.662 32.8911 172.662 32.6454 172.748 32.502C172.748 32.502 172.921 32.2153 173.205 31.6214C173.439 31.1093 173.649 30.5564 173.822 29.9829C173.933 29.6143 174.106 29.3481 174.315 29.2661C174.784 29.0613 175.29 29.7986 175.438 30.8841C175.574 31.8671 175.414 30.2082 175.734 33.7513C175.722 33.8947 175.636 34.0585 175.525 34.079Z" fill="#9FC8D6"/>
<path d="M162.334 15.6664L162.371 15.6869C162.469 15.7278 162.63 15.6869 162.716 15.5846L162.753 15.5437C162.839 15.4415 162.815 15.3801 162.704 15.421L162.371 15.5233C162.235 15.5437 162.235 15.6255 162.334 15.6664Z" fill="#F6916F"/>
<path d="M161.26 13.5779C161.087 13.6189 161.013 13.8034 161.05 14.1313C161.075 14.4387 161.186 14.5822 161.359 14.5207C161.531 14.4797 161.605 14.2953 161.568 13.9673C161.531 13.6599 161.433 13.5165 161.26 13.5779Z" fill="#454545"/>
<path d="M163.321 12.9639C163.148 13.0049 163.074 13.1894 163.111 13.5173C163.136 13.8247 163.247 13.9682 163.419 13.9067C163.592 13.8657 163.666 13.6812 163.629 13.3533C163.592 13.0459 163.481 12.9024 163.321 12.9639Z" fill="#454545"/>
<path d="M161.544 12.4729L160.841 12.6778C160.791 12.6983 160.767 12.7598 160.767 12.8418C160.779 12.9238 160.816 12.9648 160.865 12.9648L161.569 12.7598C161.618 12.7393 161.643 12.6778 161.643 12.5959C161.643 12.4934 161.593 12.4524 161.544 12.4729Z" fill="#4C3513"/>
<path d="M163.518 11.8784L162.815 12.0834C162.765 12.1039 162.741 12.1653 162.741 12.2473C162.753 12.3293 162.79 12.3703 162.839 12.3703L163.543 12.1653C163.592 12.1448 163.617 12.0834 163.617 12.0014C163.604 11.9194 163.567 11.8784 163.518 11.8784Z" fill="#4C3513"/>
<path d="M161.408 18.145C161.803 18.5136 162.272 18.616 162.803 18.4317C162.84 18.4317 162.864 18.4112 162.901 18.4112C163.42 18.2678 163.827 17.8787 164.111 17.2643C164.394 16.6499 164.555 15.8307 164.592 14.7862C164.592 14.6428 164.592 14.52 164.604 14.3766C164.58 14.2332 164.086 11.0998 163.876 10.6697C163.666 10.2396 163.136 9.78903 162.766 9.82999C162.395 9.85047 161.914 9.97335 161.914 9.97335C161.914 9.97335 161.433 10.1372 161.075 10.3215C160.717 10.5058 160.322 11.2226 160.211 11.7551C160.1 12.2671 160.285 15.503 160.298 15.6464C160.322 15.7693 160.359 15.9126 160.384 16.0355C160.631 17.039 160.976 17.7558 161.408 18.145ZM161.05 14.1104C161.013 13.8032 161.087 13.5983 161.26 13.5574C161.433 13.4959 161.544 13.6393 161.569 13.9465C161.606 14.2537 161.532 14.4585 161.359 14.4995C161.186 14.5609 161.075 14.438 161.05 14.1104ZM163.42 13.9056C163.247 13.967 163.136 13.8236 163.111 13.5164C163.074 13.2092 163.148 13.0044 163.321 12.9635C163.494 12.902 163.605 13.0454 163.629 13.3526C163.654 13.6803 163.592 13.8646 163.42 13.9056ZM162.358 15.5235L162.692 15.4211C162.803 15.3801 162.827 15.4416 162.741 15.544L162.704 15.5849C162.618 15.6873 162.469 15.7283 162.358 15.6873L162.321 15.6669C162.235 15.6259 162.235 15.544 162.358 15.5235Z" fill="#FDCEA2"/>
<path d="M160.236 16.0972C160.236 16.0972 160.236 16.1177 160.236 16.0972C160.507 17.1827 160.878 17.92 161.334 18.3501C161.741 18.7187 162.21 18.8416 162.729 18.6778C162.753 18.6778 162.79 18.6573 162.815 18.6573C162.852 18.6573 162.877 18.6368 162.914 18.6368C163.469 18.473 163.913 18.0634 164.209 17.408C164.505 16.7731 164.678 15.8924 164.715 14.807V14.7865C164.826 14.766 165.147 14.6022 165.172 13.3939C165.184 12.4108 164.962 12.206 164.814 12.165C164.765 13.2915 164.579 14.3769 164.579 14.3769C164.579 14.5203 164.579 14.6636 164.567 14.7865C164.53 15.8105 164.37 16.6502 164.086 17.2646C163.802 17.8585 163.395 18.2477 162.877 18.4115C162.852 18.4115 162.815 18.432 162.778 18.432C162.247 18.6163 161.778 18.5139 161.384 18.1453C160.964 17.7561 160.619 17.0393 160.359 16.0358C160.322 15.9129 160.298 15.79 160.273 15.6467C160.273 15.6467 159.878 14.7251 159.594 13.7011C159.459 13.8035 159.298 14.1311 159.508 15.0528C159.792 16.1792 160.125 16.1382 160.236 16.0972Z" fill="#FCB97C"/>
<path d="M159.606 13.7014C159.89 14.7254 160.285 15.647 160.285 15.647C160.273 15.5036 160.1 12.2677 160.199 11.7557C160.31 11.2232 160.705 10.5064 161.063 10.3221C161.42 10.1378 161.902 9.97395 161.902 9.97395C161.902 9.97395 162.383 9.87155 162.753 9.83059C163.123 9.81011 163.654 10.2402 163.864 10.6703C164.073 11.1004 164.567 14.2134 164.592 14.3772C164.592 14.3772 164.764 13.2917 164.826 12.1653C164.838 11.981 164.838 11.7967 164.838 11.6328C164.838 10.404 164.505 9.0933 163.999 8.29457C163.493 7.49584 162.37 6.65615 162.37 6.65615L162.284 7.35248L161.47 5.85742L161.013 7.72112L160.791 7.10672C160.791 7.10672 159.903 8.54033 159.594 9.58482C159.286 10.6293 159.236 12.0425 159.495 13.1893C159.52 13.3737 159.569 13.5375 159.606 13.7014Z" fill="#71431C"/>
<path d="M150.92 34.3045C150.932 35.0008 151.277 35.5538 151.697 35.5333C152.117 35.5128 152.45 34.9394 152.437 34.243L152.413 32.5227C151.783 32.5432 151.512 32.5432 150.895 32.5637L150.92 34.3045Z" fill="#FEE89B"/>
<path d="M146.23 1.94561C146.304 1.90465 146.366 1.84321 146.44 1.78177C146.576 1.63841 146.699 1.45409 146.786 1.24929C146.798 1.20833 146.823 1.12641 146.86 1.00353C146.934 0.757766 147.02 0.389124 147.02 0.225283C147.02 0.184323 146.971 0.245762 146.909 0.307202C146.872 0.348163 146.823 0.409603 146.81 0.409603C146.391 0.675845 145.934 0.348163 145.49 0.368643C145.354 0.368643 145.206 0.430083 145.083 0.512004C145.07 0.532484 145.046 0.532485 145.033 0.552965C145.009 0.573445 144.972 0.614406 144.947 0.634886C144.922 0.675846 144.885 0.696326 144.861 0.737287C144.824 0.798727 144.787 0.839686 144.75 0.921607L144.737 0.942088C144.713 1.00353 144.626 1.24929 144.589 1.26977H144.577C144.565 1.26977 144.552 1.24929 144.54 1.24929C144.515 1.22881 144.491 1.20833 144.466 1.18785C144.379 1.12641 144.268 1.10593 144.182 1.14689C144.157 1.16737 144.12 1.20833 144.096 1.22881C144.083 1.24929 144.059 1.24929 144.046 1.24929C144.034 1.24929 144.022 1.22881 144.022 1.20833C143.997 1.14689 143.96 1.04449 143.948 1.02401C143.849 0.860166 143.738 0.716806 143.627 0.593925C143.491 0.450564 143.343 0.348163 143.183 0.286722C143.084 0.245762 142.973 0.225282 142.862 0.204802C142.677 0.184321 142.492 0.184322 142.306 0.184322C142.22 0.184322 142.146 0.184322 142.06 0.163842C141.998 0.163842 141.924 0.143362 141.862 0.122882C141.801 0.102402 141.739 0.0819212 141.677 0.0614411C141.64 0.0409609 141.591 0 141.554 0C141.554 0.0204802 141.554 0.0204814 141.566 0.0204814C141.566 0.0204814 141.566 0.0204811 141.578 0.0409612C141.603 0.0819216 141.628 0.143361 141.652 0.204802C141.677 0.266242 141.689 0.307204 141.702 0.327684C141.813 0.634886 141.912 0.942088 142.072 1.18785C142.084 1.20833 142.097 1.22881 142.121 1.24929C142.158 1.31073 142.195 1.37217 142.232 1.43361C142.38 1.65889 142.541 1.84321 142.714 2.00706C142.714 2.00706 142.726 2.00706 142.726 2.02754C142.726 2.02754 142.738 2.02754 142.738 2.04802C142.837 2.12994 143.01 2.19138 142.948 2.3757C142.886 2.5805 142.837 2.76482 142.812 2.9901C142.812 3.01058 142.812 3.01058 142.812 3.03106V3.05154C142.812 3.07202 142.812 3.0925 142.812 3.11298C142.8 3.23587 142.8 3.35875 142.812 3.50211C142.825 3.76835 142.886 4.03459 142.973 4.28035C142.997 4.34179 143.059 4.46467 143.109 4.56708C143.146 4.649 143.183 4.68996 143.207 4.71044C143.232 4.68996 143.269 4.5466 143.306 4.42371C143.318 4.36227 143.331 4.30083 143.343 4.25987C143.368 4.17795 143.392 4.07555 143.417 3.99363C143.442 3.89123 143.466 3.80931 143.503 3.70691C143.54 3.58403 143.59 3.44067 143.639 3.31779C143.725 3.11298 143.812 2.92866 143.911 2.74434C143.96 2.66242 144.009 2.56002 144.083 2.51906C144.17 2.4781 144.281 2.56002 144.379 2.5805C144.392 2.5805 144.416 2.5805 144.429 2.5805C144.491 2.5805 144.552 2.56002 144.614 2.51906C144.614 2.51906 144.614 2.51906 144.626 2.51906H144.639C144.676 2.4781 144.725 2.43714 144.762 2.41666C144.873 2.3757 145.033 2.56002 145.12 2.64194C145.391 2.90818 145.638 3.23586 145.873 3.58403C145.91 3.62499 145.934 3.68643 145.971 3.72739C146.095 3.93219 146.218 4.13699 146.341 4.36227C146.403 4.48515 146.527 4.91524 146.601 4.9562C146.601 4.9562 146.601 4.9562 146.613 4.9562C146.675 4.97668 146.761 4.60804 146.81 4.34179C146.823 4.23939 146.835 4.15747 146.835 4.11651C146.847 3.89123 146.81 3.62499 146.81 3.37923C146.81 3.37923 146.81 3.37923 146.81 3.35875C146.81 3.1949 146.786 3.05154 146.749 2.90818C146.736 2.84674 146.712 2.76482 146.687 2.70338C146.687 2.6829 146.675 2.6829 146.675 2.6829C146.625 2.53954 146.551 2.39618 146.477 2.2733C146.477 2.2733 146.477 2.2733 146.465 2.25282C146.44 2.21186 146.354 2.0685 146.292 1.98658C146.267 1.94562 146.243 1.92513 146.23 1.92513C146.23 1.92513 146.23 1.92513 146.218 1.92513H146.23C146.206 1.98658 146.218 1.98658 146.23 1.94561Z" fill="#DF5457"/>
<path d="M146.367 0.491943C146.342 0.491943 146.317 0.491943 146.28 0.491943C146.305 0.511434 146.342 0.511434 146.367 0.491943C146.367 0.511434 146.367 0.491943 146.367 0.491943Z" fill="#DF5457"/>
<path d="M146.835 10.1377C146.625 11.2027 146.255 11.981 145.774 12.4315C146.119 14.1519 147.02 14.8073 147.02 14.8073C146.699 12.7183 147.613 11.9195 147.045 9.99438C146.959 10.0968 146.872 10.0968 146.835 10.0968C146.835 10.1173 146.835 10.1377 146.835 10.1377Z" fill="#78512D"/>
<path d="M144.96 10.1785H144.626C144.515 10.1785 144.491 10.2398 144.589 10.3215L144.626 10.3419C144.725 10.4236 144.873 10.4236 144.972 10.3419L145.009 10.3215C145.095 10.2398 145.071 10.1785 144.96 10.1785Z" fill="#F6916F"/>
<path d="M145.761 4.89486C145.687 4.6491 145.675 4.28046 145.675 4.05518C145.663 4.25998 145.613 4.60814 145.44 4.7515C145.181 4.95631 144.034 4.50574 143.392 6.65616C142.825 8.56082 143.232 9.85108 143.219 11.2028C143.59 12.1244 144.145 12.6159 144.811 12.6159C145.157 12.6159 145.478 12.4725 145.761 12.2063C146.206 11.7762 146.539 11.0594 146.736 10.0559C146.785 9.8306 146.81 9.58483 146.847 9.31859C146.847 9.29811 146.847 9.29811 146.847 9.27763C146.847 8.60178 146.81 7.45489 146.576 6.90193C146.23 6.16464 145.872 5.26351 145.761 4.89486ZM144.626 10.1788H144.959C145.07 10.1788 145.095 10.2402 144.996 10.3221L144.959 10.3426C144.861 10.4245 144.712 10.4245 144.614 10.3426L144.577 10.3221C144.49 10.2402 144.515 10.1788 144.626 10.1788ZM143.503 8.41746C143.503 8.0693 143.59 7.88498 143.762 7.88498C143.935 7.88498 144.021 8.0693 144.021 8.41746C144.021 8.76563 143.935 8.94995 143.762 8.94995C143.59 8.97043 143.503 8.78611 143.503 8.41746ZM145.86 8.94995C145.848 8.94995 145.835 8.94995 145.823 8.94995C145.65 8.94995 145.564 8.76563 145.564 8.41746C145.564 8.0693 145.65 7.88498 145.823 7.88498C145.996 7.88498 146.082 8.0693 146.082 8.41746C146.082 8.49938 146.082 8.56082 146.07 8.62226C146.045 8.82707 145.971 8.92947 145.86 8.94995Z" fill="#FCCAB4"/>
<path d="M146.811 9.80963C146.811 9.80963 146.823 9.62531 146.823 9.35907C146.823 9.33859 146.823 9.31811 146.823 9.29763C146.823 9.31811 146.823 9.31811 146.823 9.33859C146.798 9.58435 146.761 9.83011 146.712 10.0759C146.514 11.0794 146.181 11.8167 145.737 12.2263C145.453 12.4925 145.145 12.6359 144.787 12.6359C144.12 12.6359 143.578 12.1239 143.195 11.2228C143.195 11.3456 143.195 11.448 143.183 11.5709C143.578 12.4106 144.133 12.8612 144.787 12.8612C145.145 12.8612 145.478 12.7178 145.774 12.4516C146.255 12.001 146.625 11.2023 146.835 10.1578V10.1373C146.885 10.1373 146.959 10.1168 147.045 10.0349C147.168 9.91203 147.304 9.60483 147.39 8.96994C147.464 8.33506 147.403 8.02786 147.304 7.86401C147.193 8.64226 147.008 9.25667 146.897 9.58435C146.848 9.70723 146.811 9.80963 146.811 9.80963Z" fill="#FAB599"/>
<path d="M145.737 2.47804C145.737 2.47804 142.639 1.1673 142.084 5.8368C141.554 10.281 143.121 10.834 142.701 13.394C143.034 12.7182 143.158 12.1242 143.207 11.5303C143.219 11.4074 143.219 11.305 143.219 11.1821C143.232 9.83045 142.825 8.54019 143.392 6.63553C144.034 4.4851 145.181 4.93567 145.441 4.73087C145.613 4.58751 145.663 4.23934 145.675 4.03454C145.675 4.23934 145.687 4.60799 145.761 4.87423C145.872 5.24287 146.243 6.144 146.551 6.90177C146.786 7.45474 146.823 8.62211 146.823 9.27748C146.823 9.29796 146.823 9.31844 146.823 9.33892C146.823 9.60517 146.81 9.78949 146.81 9.78949C146.81 9.78949 146.847 9.70757 146.897 9.54373C147.008 9.21604 147.193 8.60163 147.304 7.82338C147.427 6.9837 147.464 5.95968 147.23 4.93567C146.674 2.53948 145.737 2.47804 145.737 2.47804Z" fill="#855D33"/>
<path d="M144.021 8.41761C144.021 8.06921 143.935 7.88477 143.762 7.88477C143.59 7.88477 143.503 8.06921 143.503 8.41761C143.503 8.76601 143.59 8.95046 143.762 8.95046C143.935 8.97095 144.021 8.7865 144.021 8.41761Z" fill="#454545"/>
<path d="M145.86 8.95047C145.971 8.92998 146.045 8.8275 146.07 8.62256C146.082 8.56108 146.082 8.4996 146.082 8.41762C146.082 8.06922 145.996 7.88477 145.823 7.88477C145.65 7.88477 145.564 8.06922 145.564 8.41762C145.564 8.76602 145.65 8.95047 145.823 8.95047C145.836 8.95047 145.848 8.95047 145.86 8.95047Z" fill="#454545"/>
<path d="M151.104 66.2125C151.092 66.1101 151.08 66.0077 151.055 65.9258C150.932 65.4753 150.771 65.0656 150.586 64.738C150.315 64.2464 149.969 63.8778 149.599 63.673L149.513 62.3418C148.254 62.5056 148.883 62.4237 147.625 62.5876L147.748 64.5946C147.637 64.9223 147.563 65.3319 147.514 65.8029C147.501 65.9463 147.501 66.0897 147.514 66.233C147.538 66.4173 147.575 66.6017 147.649 66.7655C147.773 67.0522 147.958 67.2161 148.155 67.2161H150.598C150.771 67.2161 150.932 67.0522 151.018 66.786C151.092 66.5812 151.117 66.3969 151.104 66.2125Z" fill="white"/>
<path d="M143.478 65.7823C143.429 65.2908 143.343 64.8607 143.232 64.5126L143.256 62.4236C141.985 62.4236 142.639 62.4236 141.368 62.4236L141.356 63.6729C140.998 63.8777 140.69 64.2258 140.418 64.6969C140.233 65.0246 140.073 65.4342 139.949 65.8847C139.925 65.9871 139.912 66.069 139.9 66.1714C139.888 66.3558 139.912 66.5401 139.962 66.7039C140.048 66.9702 140.209 67.134 140.381 67.134H142.824C143.022 67.134 143.207 66.9702 143.33 66.6835C143.404 66.5196 143.441 66.3558 143.466 66.151C143.491 66.0691 143.491 65.9257 143.478 65.7823Z" fill="white"/>
<path d="M147.97 33.916C147.97 33.8545 147.958 33.8136 147.958 33.7521C148.057 32.81 148.02 31.7451 147.97 30.8644C147.958 30.5982 147.896 30.3319 147.798 30.1066L147.625 29.7175L147.427 29.2874V28.5297V26.9732L147.477 26.7684L147.835 25.0685C147.859 24.9456 147.835 24.8023 147.773 24.7203L147.551 24.4336C147.551 24.4336 147.551 24.4336 147.538 24.4336C147.477 24.3517 147.415 24.2493 147.378 24.1469C147.316 23.9831 147.279 23.7987 147.267 23.5939L147.119 19.2521L147.144 19.0473C147.144 19.0473 147.144 19.0473 147.131 19.0473L146.132 18.6582C146.132 18.6582 146.132 18.6582 146.119 18.6582L146.082 18.904C145.453 18.904 145.379 18.904 144.762 18.904C144.75 18.904 144.737 18.904 144.725 18.904C144.429 18.904 144.022 18.904 143.405 18.904L143.368 18.6582C143.368 18.6582 143.368 18.6582 143.355 18.6582L142.356 19.0473C142.356 19.0473 142.356 19.0473 142.344 19.0473L142.368 19.2521L142.22 23.5939C142.208 23.7987 142.171 23.9831 142.109 24.1469C142.072 24.2493 142.01 24.3517 141.949 24.4336C141.949 24.4336 141.949 24.4336 141.936 24.4336L141.714 24.6999C141.653 24.7818 141.628 24.9251 141.653 25.048L142.01 26.7479L142.06 26.9527V28.5092V29.2465L141.862 29.697L141.69 30.0862C141.591 30.3114 141.529 30.5572 141.517 30.8439C141.467 31.7655 141.443 32.7076 141.504 33.5473C141.492 33.6702 141.48 33.7726 141.48 33.8955L141.307 62.4244C141.998 62.4244 140.702 62.4244 143.195 62.4244L143.713 36.5989C144.009 36.6603 144.343 36.6808 144.713 36.6808C145.12 36.6808 145.478 36.6398 145.799 36.5784L147.576 62.5473C148.353 62.4449 148.698 62.4039 149.463 62.3015L147.97 33.916Z" fill="#FCCAB4"/>
<path d="M147.366 17.4695C147.378 17.4695 147.378 17.4695 147.366 17.4695L147.945 13.2915C147.834 13.2505 147.736 13.2301 147.625 13.2301C147.366 13.1891 147.131 13.1481 146.909 13.1072L146.366 17.0803C146.366 17.0803 146.366 17.0803 146.378 17.0803L147.366 17.4695Z" fill="#FCCAB4"/>
<path d="M147.193 18.7399L147.329 17.7773C147.329 17.7773 147.329 17.7773 147.317 17.7773L146.317 17.3882C146.317 17.3882 146.317 17.3882 146.305 17.3882L146.169 18.3508C146.169 18.3508 146.169 18.3508 146.181 18.3508L147.193 18.7399Z" fill="#FCCAB4"/>
<path d="M142.208 17.7773L142.344 18.7399C142.344 18.7399 142.344 18.7399 142.356 18.7399L143.356 18.3508C143.356 18.3508 143.356 18.3508 143.368 18.3508L143.232 17.3882C143.232 17.3882 143.232 17.3882 143.22 17.3882L142.208 17.7773Z" fill="#FCCAB4"/>
<path d="M142.171 17.4695L143.17 17.0803C143.17 17.0803 143.17 17.0803 143.183 17.0803L142.64 13.1072C142.418 13.1481 142.183 13.1686 141.924 13.2096C141.813 13.2096 141.702 13.2301 141.603 13.271L142.171 17.4695Z" fill="#FCCAB4"/>
<path d="M150.87 32.2557H152.351V27.6886C152.351 25.4358 151.993 23.2239 151.314 21.2783L148.957 14.4994C148.896 14.315 148.797 14.1717 148.698 14.0693C148.476 13.7416 148.205 13.5368 147.921 13.4344L147.81 14.2331C147.6 14.5608 147.526 15.0933 147.625 15.5439L147.514 16.3221L147.106 13.4344L146.884 13.373L146.897 13.2706C146.539 13.2091 146.243 13.1682 145.971 13.1272C144.947 14.8271 143.639 13.1272 143.639 13.1272C143.368 13.1682 143.059 13.2091 142.714 13.2501L141.702 13.4549V13.4344C141.652 13.4549 141.615 13.4754 141.566 13.4958C141.332 13.5982 141.122 13.803 140.924 14.0693C140.801 14.1922 140.69 14.3765 140.628 14.6223L138.358 22.8553C138.358 22.8758 138.345 22.8962 138.333 22.8962C138.308 22.9372 138.284 22.9577 138.259 22.9782C138.222 22.9986 138.173 22.9782 138.148 22.9372L135.483 19.2713L134.545 21.1759L137.198 24.8214C137.58 25.3539 138.099 25.5587 138.592 25.3743C139.061 25.19 139.481 24.6575 139.703 23.8793L141.344 17.94C141.541 19.3122 141.874 21.4422 141.986 22.1385C142.047 22.5276 142.158 23.2239 142.158 23.2239C142.195 23.4902 142.232 23.7564 142.257 24.0227C142.319 23.8588 142.356 23.6745 142.356 23.4902L142.454 20.4796H147.143L147.242 23.4902C147.242 23.6745 147.279 23.8588 147.341 24.0227C147.366 23.7564 147.403 23.4902 147.44 23.2239C147.44 23.2239 147.551 22.5276 147.612 22.159C147.649 21.8927 148.094 19.0665 148.303 17.6124L150.019 22.5276C150.561 24.1046 150.858 25.8864 150.858 27.7091V32.2557H150.87Z" fill="white"/>
<path d="M132.262 14.7869C132.274 14.7869 132.299 14.7665 132.311 14.7665C132.348 14.7665 132.373 14.746 132.385 14.705C132.398 14.6641 132.41 14.6026 132.398 14.5617L132.361 14.3569C132.324 14.1521 132.398 13.9472 132.521 13.8858C132.546 13.8653 132.571 13.8653 132.595 13.8653C132.632 13.8653 132.657 13.8448 132.682 13.8039C132.706 13.7629 132.706 13.7015 132.694 13.64L132.669 13.5172C132.632 13.3124 132.706 13.0871 132.83 13.0256C132.953 12.9642 133.089 13.0871 133.138 13.2919L133.151 13.3533C133.163 13.3943 133.175 13.4352 133.212 13.4557C133.237 13.4762 133.274 13.4557 133.299 13.4148C133.323 13.3738 133.36 13.3533 133.397 13.3328C133.521 13.2714 133.656 13.3943 133.706 13.5991C134.051 15.5447 134.113 15.8929 134.187 16.3025C134.199 16.3844 134.249 16.4458 134.298 16.4458C134.347 16.4458 134.397 16.4049 134.422 16.3434C134.668 15.6266 134.829 15.2785 134.829 15.258C134.903 15.0941 135.051 15.0532 135.15 15.1965C135.248 15.3194 135.273 15.5652 135.187 15.729C135.187 15.729 135.039 16.0567 134.816 16.7121C134.619 17.2855 134.471 17.8795 134.348 18.4939C134.273 18.883 134.125 19.1902 133.916 19.3336C133.459 19.6408 132.904 19.0468 132.669 18.0023C132.46 17.0602 132.756 18.6782 132.139 15.217C132.102 15.0122 132.163 14.8279 132.262 14.7869Z" fill="#FEE89B"/>
<path d="M134.545 17.7974C134.212 17.3468 133.706 17.4082 133.434 17.9817C133.163 18.5347 133.2 19.3743 133.545 19.8249L134.372 20.9513C134.779 20.1116 134.964 19.7635 135.372 18.9238L134.545 17.7974Z" fill="#FEE89B"/>
<path d="M152.388 39.2402C152.376 39.2402 152.351 39.2402 152.339 39.2402C152.314 39.2197 152.277 39.2402 152.252 39.2812C152.228 39.3221 152.215 39.3631 152.215 39.4245V39.6293C152.215 39.8341 152.116 39.998 151.993 39.998C151.968 39.998 151.944 39.998 151.919 39.9775C151.882 39.957 151.857 39.9775 151.82 39.998C151.796 40.0389 151.783 40.0799 151.783 40.1413V40.2642C151.783 40.4895 151.672 40.6533 151.537 40.6738C151.401 40.6738 151.29 40.51 151.29 40.2847V40.2233C151.29 40.1823 151.277 40.1209 151.253 40.1004C151.228 40.0799 151.191 40.0799 151.166 40.1004C151.129 40.1209 151.105 40.1413 151.055 40.1413C150.92 40.1413 150.808 39.9775 150.808 39.7522C150.796 37.7247 150.796 37.356 150.796 36.9464C150.796 36.8645 150.759 36.7826 150.722 36.7621C150.685 36.7416 150.623 36.7416 150.586 36.8031C150.241 37.3765 150.019 37.6428 150.019 37.6428C149.92 37.7656 149.772 37.7247 149.698 37.5608C149.624 37.397 149.649 37.1512 149.747 37.0284C149.747 37.0284 149.945 36.7826 150.266 36.2501C150.549 35.7995 150.796 35.2875 151.018 34.7551C151.154 34.4069 151.351 34.1816 151.574 34.1407C152.055 34.0587 152.499 34.8779 152.548 36.0043C152.598 37.0079 152.585 35.3285 152.598 38.9125C152.598 39.0969 152.499 39.2402 152.388 39.2402Z" fill="#FEE89B"/>
<path d="M143.774 36.619C144.071 36.6794 144.404 36.6995 144.774 36.6995C145.181 36.6995 145.539 36.6592 145.86 36.5989" fill="url(#paint6_linear)"/>
<path d="M147.97 33.9162C147.97 33.8547 147.958 33.8138 147.958 33.7523C148.056 32.8103 148.019 31.7453 147.97 30.8646C147.958 30.5984 147.896 30.3322 147.797 30.1069L147.624 29.7177L147.427 29.2877V28.5299V26.9734L147.476 26.7686L147.834 25.0687C147.859 24.9459 147.834 24.8025 147.772 24.7206L147.55 24.4339C147.55 24.4339 147.55 24.4339 147.538 24.4339C147.476 24.3519 147.415 24.2495 147.378 24.1471C147.316 23.9833 147.279 23.799 147.267 23.5942L147.118 19.2524L147.143 19.0476C147.143 19.0476 147.143 19.0476 147.131 19.0476L146.131 18.6584C146.131 18.6584 146.131 18.6584 146.119 18.6584L146.082 18.9042C145.453 18.9042 145.379 18.9042 144.762 18.9042C144.749 18.9042 144.737 18.9042 144.725 18.9042C144.428 18.9042 144.021 18.9042 143.404 18.9042L143.367 18.6584C143.367 18.6584 143.367 18.6584 143.355 18.6584L142.355 19.0476C142.355 19.0476 142.355 19.0476 142.343 19.0476L142.368 19.2524L142.22 23.5942C142.207 23.799 142.17 23.9833 142.109 24.1471C142.072 24.2495 142.01 24.3519 141.948 24.4339C141.948 24.4339 141.948 24.4339 141.936 24.4339L141.714 24.7001C141.652 24.782 141.627 24.9254 141.652 25.0483L142.01 26.7481L142.059 26.9529V28.5094V29.2467L141.862 29.6973L141.689 30.0864C141.59 30.3117 141.529 30.5574 141.516 30.8442C141.467 31.7658 141.442 32.7079 141.504 33.5475C141.492 33.6704 141.479 33.7728 141.479 33.8957L141.023 41.4529H149.389L147.97 33.9162Z" fill="url(#paint7_linear)"/>
<path d="M147.365 17.4695C147.378 17.4695 147.378 17.4695 147.365 17.4695L147.945 13.2915C147.834 13.2505 147.735 13.2301 147.624 13.2301C147.365 13.1891 147.131 13.1481 146.909 13.1072L146.366 17.0803C146.366 17.0803 146.366 17.0803 146.378 17.0803L147.365 17.4695Z" fill="url(#paint8_linear)"/>
<path d="M147.192 18.7401L147.328 17.7775C147.328 17.7775 147.328 17.7775 147.316 17.7775L146.316 17.3884C146.316 17.3884 146.316 17.3884 146.304 17.3884L146.168 18.351C146.168 18.351 146.168 18.351 146.181 18.351L147.192 18.7401Z" fill="url(#paint9_linear)"/>
<path d="M142.207 17.7775L142.343 18.7401C142.343 18.7401 142.343 18.7401 142.355 18.7401L143.355 18.351C143.355 18.351 143.355 18.351 143.367 18.351L143.232 17.3884C143.232 17.3884 143.232 17.3884 143.219 17.3884L142.207 17.7775Z" fill="url(#paint10_linear)"/>
<path d="M142.17 17.4695L143.17 17.0803C143.17 17.0803 143.17 17.0803 143.182 17.0803L142.639 13.1072C142.417 13.1481 142.183 13.1686 141.924 13.2096C141.812 13.2096 141.701 13.2301 141.603 13.271L142.17 17.4695Z" fill="url(#paint11_linear)"/>
<path d="M141.739 30.0854C141.739 30.0854 139.777 36.8849 140.418 44.5445C140.418 44.5445 144.836 48.702 150.031 44.5445C150.031 44.5445 149.833 35.1645 147.797 30.0854H141.739Z" fill="url(#paint12_linear)"/>
<path d="M89.681 53.6903C89.4056 53.57 89.1181 53.5098 88.8183 53.5098C88.5186 53.5098 88.2756 53.6368 88.0893 53.8909C87.9111 54.1317 87.822 54.4794 87.822 54.9341C87.822 55.3754 87.8908 55.7231 88.0285 55.9772C88.1662 56.2313 88.4376 56.452 88.8426 56.6392L89.9241 57.1608C90.5073 57.4416 90.969 57.883 91.3092 58.4848C91.6576 59.0732 91.8317 59.9425 91.8317 61.0926C91.8317 62.4568 91.532 63.5333 90.9326 64.3224C90.3412 65.1114 89.6041 65.506 88.7211 65.506C88.2351 65.506 87.7329 65.4056 87.2144 65.205C86.7041 64.9911 86.2788 64.6968 85.9386 64.3224C85.9386 64.2421 85.9386 64.0883 85.9386 63.861C85.9386 63.6336 85.967 63.2458 86.0237 62.6975C86.0804 62.1492 86.1614 61.7011 86.2667 61.3534H87.421C87.5506 61.768 87.6276 62.323 87.6519 63.0185C87.9354 63.2191 88.2634 63.3194 88.6361 63.3194C89.0168 63.3194 89.3287 63.1723 89.5717 62.878C89.8147 62.5838 89.9362 62.1625 89.9362 61.6142C89.9362 61.3601 89.9241 61.1528 89.8998 60.9923C89.8755 60.8185 89.7985 60.6379 89.6689 60.4507C89.5474 60.2501 89.3692 60.0896 89.1343 59.9693L87.8827 59.3674C86.6109 58.7656 85.9751 57.4283 85.9751 55.3554C85.9751 54.1384 86.2424 53.1688 86.777 52.4466C87.3116 51.711 88.0083 51.3433 88.8669 51.3433C89.7337 51.3433 90.5802 51.6642 91.4065 52.3062C91.4065 52.3864 91.4065 52.5402 91.4065 52.7676C91.4065 52.9949 91.3781 53.3827 91.3214 53.9311C91.2647 54.4794 91.1837 54.9274 91.0784 55.2751H89.9241C89.7863 54.9541 89.7053 54.4259 89.681 53.6903Z" fill="white"/>
<path d="M95.2593 57.2009C94.5141 57.2009 94.1414 58.2574 94.1414 60.3705C94.1414 61.4404 94.2427 62.1893 94.4452 62.6172C94.6558 63.0318 94.9555 63.2391 95.3444 63.2391C95.96 63.2391 96.5027 63.1455 96.9726 62.9583L97.3371 64.5029C97.0779 64.7838 96.7295 65.0245 96.2921 65.2251C95.8547 65.4123 95.4294 65.506 95.0163 65.506C93.2666 65.506 92.3917 63.8342 92.3917 60.4908C92.3917 58.5383 92.6955 57.134 93.303 56.2781C93.8458 55.5292 94.5059 55.1548 95.2836 55.1548C96.0613 55.1548 96.7093 55.3955 97.2277 55.8769C97.2358 56.0107 97.2399 56.1377 97.2399 56.2581C97.2399 57.0204 97.1346 57.7426 96.924 58.4246H95.8547C95.7413 58.0903 95.6724 57.6891 95.6481 57.221C95.5509 57.2076 95.4213 57.2009 95.2593 57.2009Z" fill="white"/>
<path d="M98.1171 56.7997C98.1171 56.5991 98.1212 56.3851 98.1293 56.1578C98.8826 55.4891 99.6927 55.1548 100.559 55.1548C101.426 55.1548 102.046 55.4289 102.418 55.9772C102.799 56.5122 102.99 57.4082 102.99 58.6653V62.9382C103.273 63.0318 103.496 63.1455 103.658 63.2792V65.0245C103.245 65.3455 102.653 65.506 101.884 65.506C101.803 65.1582 101.734 64.737 101.677 64.2421C101.329 65.0847 100.697 65.506 99.7818 65.506C99.239 65.506 98.7733 65.2452 98.3844 64.7236C98.0037 64.202 97.8133 63.4932 97.8133 62.5972C97.8133 61.7011 97.9915 60.999 98.348 60.4908C98.7125 59.9693 99.2512 59.7085 99.964 59.7085H101.288V58.7456C101.288 57.7024 100.952 57.1809 100.28 57.1809C100.029 57.1809 99.8223 57.221 99.6603 57.3012C99.6441 57.8629 99.5955 58.2976 99.5144 58.6052H98.3237C98.186 58.1371 98.1171 57.5353 98.1171 56.7997ZM100.304 63.4598C100.717 63.4598 101.045 63.2592 101.288 62.858V61.213H100.438C99.8547 61.213 99.5631 61.5808 99.5631 62.3163C99.5631 62.6507 99.6238 62.9248 99.7453 63.1388C99.8749 63.3528 100.061 63.4598 100.304 63.4598Z" fill="white"/>
<path d="M104.213 55.3152C104.659 55.1548 105.06 55.0745 105.416 55.0745C105.773 55.0745 106.068 55.0879 106.303 55.1146V56.1177C106.506 55.8368 106.773 55.6095 107.105 55.4356C107.445 55.2484 107.77 55.1548 108.077 55.1548C108.871 55.1548 109.426 55.4623 109.742 56.0775C110.066 56.6927 110.228 57.7559 110.228 59.2671V63.1188C110.544 63.3194 110.767 63.5467 110.896 63.8008L110.775 65.3455H107.98L107.859 63.8008C107.972 63.5467 108.195 63.3194 108.527 63.1188V59.1468C108.527 58.4246 108.454 57.9432 108.308 57.7024C108.17 57.4483 107.919 57.3213 107.555 57.3213C107.19 57.3213 106.826 57.5353 106.461 57.9632V63.1188C106.777 63.3194 107 63.5467 107.13 63.8008L107.008 65.3455H104.213L104.092 63.8008C104.205 63.5467 104.428 63.3194 104.76 63.1188V57.5419C104.477 57.3815 104.254 57.1541 104.092 56.8599L104.213 55.3152Z" fill="white"/>
<path d="M111.44 55.3152C111.885 55.1548 112.286 55.0745 112.643 55.0745C112.999 55.0745 113.295 55.0879 113.53 55.1146V56.1177C113.732 55.8368 114 55.6095 114.332 55.4356C114.672 55.2484 114.996 55.1548 115.304 55.1548C116.098 55.1548 116.652 55.4623 116.968 56.0775C117.292 56.6927 117.454 57.7559 117.454 59.2671V63.1188C117.77 63.3194 117.993 63.5467 118.123 63.8008L118.001 65.3455H115.207L115.085 63.8008C115.198 63.5467 115.421 63.3194 115.753 63.1188V59.1468C115.753 58.4246 115.68 57.9432 115.535 57.7024C115.397 57.4483 115.146 57.3213 114.781 57.3213C114.417 57.3213 114.052 57.5353 113.688 57.9632V63.1188C114.004 63.3194 114.226 63.5467 114.356 63.8008L114.234 65.3455H111.44L111.318 63.8008C111.432 63.5467 111.654 63.3194 111.987 63.1188V57.5419C111.703 57.3815 111.48 57.1541 111.318 56.8599L111.44 55.3152Z" fill="white"/>
<path d="M121.461 65.506C120.489 65.506 119.756 65.078 119.262 64.2221C118.776 63.3662 118.533 62.1224 118.533 60.4908C118.533 59.5012 118.618 58.652 118.788 57.9432C118.958 57.221 119.189 56.666 119.48 56.2781C120.047 55.5292 120.708 55.1548 121.461 55.1548C122.214 55.1548 122.789 55.4757 123.186 56.1177C123.591 56.7462 123.794 57.883 123.794 59.5279C123.794 60.4908 123.506 60.9723 122.931 60.9723H120.294C120.327 61.8148 120.456 62.41 120.683 62.7577C120.918 63.1054 121.287 63.2792 121.789 63.2792C122.064 63.2792 122.328 63.2257 122.579 63.1188C122.83 63.0118 123.012 62.9048 123.126 62.7978L123.296 62.6373L123.66 64.2421C123.612 64.3358 123.539 64.4561 123.441 64.6032C123.352 64.737 123.117 64.9242 122.737 65.1649C122.364 65.3923 121.939 65.506 121.461 65.506ZM122.226 59.1869C122.243 58.9997 122.251 58.7723 122.251 58.5048C122.251 58.2374 122.186 57.9565 122.056 57.6623C121.927 57.3547 121.7 57.2009 121.376 57.2009C121.06 57.2009 120.817 57.3614 120.647 57.6824C120.477 58.0033 120.363 58.545 120.307 59.3073L122.226 59.1869Z" fill="white"/>
<path d="M128.064 57.7827C127.448 57.7827 127.023 57.9766 126.788 58.3644V62.9583C127.444 63.1589 127.893 63.4397 128.136 63.8008L128.015 65.3455H124.54L124.418 63.8008C124.532 63.5467 124.755 63.3194 125.087 63.1188V57.5419C124.803 57.3815 124.58 57.1541 124.418 56.8599L124.54 55.3152C124.985 55.1548 125.386 55.0745 125.743 55.0745C126.099 55.0745 126.395 55.0879 126.63 55.1146V56.3784C126.816 56.0173 127.055 55.7231 127.347 55.4958C127.638 55.2551 127.902 55.1347 128.136 55.1347C128.38 55.1347 128.546 55.1681 128.635 55.235L128.598 57.8429C128.436 57.8027 128.258 57.7827 128.064 57.7827Z" fill="white"/>
<path fill-rule="evenodd" clip-rule="evenodd" d="M24.245 15.1666H19.3873V14.0188H29.8266V15.1666H24.9689V41.1022H24.245V15.1666Z" fill="white"/>
<path fill-rule="evenodd" clip-rule="evenodd" d="M38.7639 30.7412C38.7639 25.2398 37.2589 22.583 34.9976 22.583C32.8366 22.583 30.8762 25.6784 30.6292 30.7412H38.7639ZM29.8266 31.9067C29.8266 25.4152 32.3426 21.405 35.0053 21.405C37.7683 21.405 39.5202 24.6633 39.5202 30.5658C39.5202 30.9793 39.5202 31.4054 39.4739 31.9067H30.6292C30.6292 37.2452 32.4815 41.1676 35.3526 41.1676C36.7109 41.1676 37.7606 40.4157 38.6635 39.338L39.0186 40.4157C38.1156 41.3306 37.1045 42.3331 35.2986 42.3331C32.2886 42.3206 29.8266 38.4107 29.8266 31.9067Z" fill="white"/>
<path fill-rule="evenodd" clip-rule="evenodd" d="M48.4822 37.7465V30.5031C43.4847 31.5056 41.7725 33.4982 41.7725 36.9194C41.7725 40.0147 42.9579 41.1676 44.3408 41.1676C45.7237 41.1676 46.9602 39.9897 48.4822 37.7465ZM41.0116 36.957C41.0116 32.4957 43.3457 30.4154 48.4895 29.4128C48.5334 26.1546 48.0578 22.5705 45.6871 22.5705C44.07 22.5705 42.6871 23.9866 41.9774 24.9891L41.5969 23.9866C42.3067 23.0718 43.8798 21.405 45.7383 21.405C48.4017 21.405 49.2139 24.9014 49.2139 28.9116V41.8318H48.5992L48.5041 39.1626H48.4602C47.2749 40.8293 45.8408 42.3331 44.3188 42.3331C42.5335 42.3206 41.0116 40.7416 41.0116 36.957Z" fill="white"/>
<path fill-rule="evenodd" clip-rule="evenodd" d="M52.9422 21.9055H53.5927L53.6934 25.1518H53.7399C54.8473 23.0218 56.2645 21.405 57.5655 21.405C59.5326 21.405 60.4851 23.1116 60.8878 25.6779C62.305 23.0346 63.6603 21.405 65.0233 21.405C67.3853 21.405 68.6012 23.8815 68.6012 29.168V42.3074H67.85V29.3477C67.85 24.831 66.9439 22.5984 64.9768 22.5984C63.7687 22.5984 62.5606 23.9713 61.1511 26.7044V42.3203H60.4V29.3605C60.4077 24.831 59.4939 22.6112 57.5346 22.6112C56.3729 22.6112 55.1183 23.9841 53.7089 26.7172V42.3331H52.9577V21.9055H52.9422Z" fill="white"/>
<path fill-rule="evenodd" clip-rule="evenodd" d="M79.9795 18.0645C79.4917 17.7119 78.7636 17.5103 77.7805 17.5103C76.8048 17.5103 76.0167 18.2408 75.4088 19.6765C74.8084 21.1374 74.5007 23.6688 74.5007 27.2959C74.5007 30.923 74.7934 33.5047 75.3713 35.0286C75.9492 36.5525 76.8123 37.3207 77.9456 37.3207C79.6868 37.3207 81.2479 36.8673 82.6363 35.9731L83.5145 39.701C81.7883 41.4641 79.7618 42.3331 77.4352 42.3331C75.1086 42.3331 73.4274 41.2123 72.3917 38.9453C71.356 36.6784 70.8382 32.9884 70.8382 27.85C70.8382 22.7117 71.4761 18.9209 72.7595 16.465C74.0354 14.0092 75.8291 12.7876 78.1407 12.7876C80.002 12.7876 81.7657 13.6692 83.4394 15.4197V16.3769C83.4394 16.8555 83.3794 17.6615 83.2743 18.8075C83.1617 19.9536 82.9966 20.8855 82.7864 21.616H80.4673C80.2347 20.8729 80.0771 19.6891 79.9795 18.0645Z" fill="white"/>
<path fill-rule="evenodd" clip-rule="evenodd" d="M85.2406 12.1199C86.1357 11.7615 86.9575 11.5566 87.7206 11.5566C88.4837 11.5566 89.1294 11.595 89.6577 11.6847V37.6092C90.274 38.0317 90.7143 38.5182 90.9711 39.0559L90.7363 42.3332H85.2406L85.0058 39.0559C85.2259 38.5054 85.6662 38.0317 86.3192 37.6092V16.844C85.7615 16.5111 85.3213 16.0246 85.0058 15.3973L85.2406 12.1199Z" fill="white"/>
<path fill-rule="evenodd" clip-rule="evenodd" d="M98.8164 28.8209C98.8482 28.4208 98.864 27.9304 98.864 27.3626C98.864 26.7818 98.7292 26.1881 98.4515 25.5429C98.1818 24.8976 97.6979 24.5749 97.0157 24.5749C96.3415 24.5749 95.8179 24.9105 95.453 25.6074C95.0881 26.2914 94.8501 27.4529 94.7311 29.079L98.8164 28.8209ZM97.1903 42.3332C95.1198 42.3332 93.573 41.4169 92.5338 39.5843C91.4946 37.7517 90.9711 35.0931 90.9711 31.5956C90.9711 29.4791 91.1456 27.6594 91.5105 26.1236C91.8754 24.5878 92.3672 23.4134 92.986 22.5874C94.1917 20.9871 95.5958 20.1741 97.1982 20.1741C98.8006 20.1741 100.022 20.8581 100.879 22.2132C101.736 23.5812 102.156 26.0075 102.156 29.5307C102.156 31.5827 101.545 32.6152 100.324 32.6152H94.7232C94.7946 34.422 95.0722 35.6868 95.5641 36.4353C96.0559 37.1838 96.8333 37.5452 97.8963 37.5452C98.4833 37.5452 99.0385 37.429 99.57 37.2096C100.102 36.9902 100.49 36.745 100.728 36.5256L101.093 36.1901L101.863 39.623C101.759 39.8166 101.609 40.0618 101.41 40.3715C101.212 40.6684 100.712 41.0814 99.9111 41.5718C99.1179 42.088 98.2056 42.3332 97.1903 42.3332Z" fill="white"/>
<path fill-rule="evenodd" clip-rule="evenodd" d="M107.247 37.9556C108.095 37.9556 108.766 37.5295 109.263 36.6772V33.1519H107.522C106.331 33.1519 105.736 33.9396 105.736 35.515C105.736 36.2382 105.858 36.8063 106.125 37.2712C106.37 37.7232 106.751 37.9556 107.247 37.9556ZM102.774 23.6994C102.774 23.2733 102.782 22.8084 102.797 22.3177C104.339 20.8843 105.996 20.1741 107.759 20.1741C109.53 20.1741 110.804 20.7552 111.568 21.9174C112.331 23.0666 112.72 24.9907 112.72 27.6896V36.8322C113.3 37.0259 113.758 37.2712 114.087 37.5682V41.3001C113.239 41.9845 112.033 42.3332 110.461 42.3332C110.301 41.5842 110.148 40.6803 110.041 39.6343C109.331 41.4422 108.034 42.3332 106.171 42.3332C105.064 42.3332 104.11 41.765 103.332 40.6545C102.545 39.5439 102.156 38.0202 102.156 36.109C102.156 34.1979 102.522 32.6741 103.263 31.5765C103.996 30.4788 105.095 29.9236 106.553 29.9236H109.263V27.8704C109.263 25.6493 108.576 24.5129 107.202 24.5129C106.69 24.5129 106.263 24.6033 105.934 24.7712C105.904 25.9721 105.805 26.9019 105.637 27.5605H103.202C102.919 26.5532 102.774 25.2748 102.774 23.6994Z" fill="white"/>
<path fill-rule="evenodd" clip-rule="evenodd" d="M115.066 20.6949C116 20.3563 116.825 20.1741 117.58 20.1741C118.32 20.1741 118.935 20.2001 119.425 20.2652V22.4264C119.846 21.8145 120.414 21.3198 121.107 20.9292C121.807 20.5386 122.484 20.3433 123.123 20.3433C124.781 20.3433 125.941 21.0073 126.602 22.3353C127.264 23.6633 127.607 25.9547 127.607 29.2226V37.516C128.26 37.9456 128.728 38.4404 129 38.9872L128.751 42.3202H122.928L122.679 38.9872C122.913 38.4404 123.38 37.9456 124.072 37.516V28.9492C124.072 27.3869 123.925 26.3453 123.629 25.8115C123.333 25.2777 122.804 25.0043 122.049 25.0043C121.293 25.0043 120.531 25.473 119.768 26.3974V37.529C120.422 37.9587 120.889 38.4534 121.161 39.0002L120.912 42.3332H115.081L114.832 39.0002C115.066 38.4534 115.533 37.9587 116.226 37.529V25.499C115.634 25.1605 115.167 24.6658 114.832 24.0278L115.066 20.6949Z" fill="white"/>
<path fill-rule="evenodd" clip-rule="evenodd" d="M5.05756 19.2532V22.4706L4.2526 22.6346C4.08553 22.3949 3.94884 21.9281 3.85012 21.2593H2.16427V24.6155H3.67546C3.75899 24.2496 3.85012 23.9847 3.94884 23.8333L4.6323 23.9594V27.2525L3.94884 27.404C3.85772 27.2778 3.76659 27.0254 3.67546 26.6217H2.16427V29.6751C2.65028 29.8517 3.0072 30.1041 3.21983 30.4321L3.11351 31.9714H0.106315L0 30.4447C0.0911271 30.2429 0.296163 30.041 0.59992 29.8265V21.3855C0.296163 21.2089 0.106315 20.9944 0 20.7546L0.106315 19.2153L5.05756 19.2532Z" fill="#394A70"/>
<path fill-rule="evenodd" clip-rule="evenodd" d="M8.44333 25.2231C7.90103 25.2231 7.5169 25.4069 7.31354 25.7877V30.1867C7.8935 30.3706 8.29269 30.6595 8.51112 31.0009L8.40567 32.4847H5.3251L5.21965 31.0009C5.31757 30.7645 5.52093 30.5282 5.81468 30.3443V24.9999C5.56612 24.8423 5.36276 24.6322 5.21965 24.3433L5.3251 22.8595C5.72429 22.7019 6.07076 22.6362 6.39464 22.6362C6.71098 22.6362 6.9746 22.6494 7.17796 22.6756V23.8837C7.34367 23.5423 7.55456 23.2534 7.81065 23.0302C8.06673 22.8069 8.30776 22.7019 8.51112 22.7019C8.72202 22.7019 8.87266 22.7282 8.94798 22.7938L8.91785 25.2888C8.77474 25.2362 8.60904 25.2231 8.44333 25.2231Z" fill="#394A70"/>
<path fill-rule="evenodd" clip-rule="evenodd" d="M11.909 30.5516C12.2807 30.5516 12.569 30.3687 12.789 29.9769V28.4095H12.0303C11.5069 28.4095 11.2489 28.7491 11.2489 29.4544C11.2489 29.7679 11.302 30.0422 11.4158 30.2381C11.5372 30.4471 11.6965 30.5516 11.909 30.5516ZM9.95918 24.2036C9.95918 24.0208 9.95918 23.8118 9.96676 23.5897C10.6344 22.9497 11.3627 22.6362 12.1366 22.6362C12.9104 22.6362 13.4718 22.8844 13.8056 23.4069C14.147 23.9293 14.3139 24.7914 14.3139 25.98V30.0422C14.5643 30.1336 14.7691 30.2381 14.9133 30.3557V32.0145C14.5415 32.3149 14.0105 32.4847 13.3277 32.4847C13.2594 32.1582 13.1987 31.7533 13.1456 31.2831C12.8345 32.0929 12.2655 32.4847 11.4538 32.4847C10.9682 32.4847 10.5509 32.2366 10.2095 31.7402C9.86055 31.2439 9.69364 30.5777 9.69364 29.7157C9.69364 28.8666 9.85296 28.1874 10.1792 27.7042C10.5054 27.2209 10.9834 26.9596 11.6207 26.9596H12.8042V26.0453C12.8042 25.0526 12.5007 24.5563 11.9014 24.5563C11.6814 24.5563 11.4917 24.5955 11.3475 24.6739C11.3324 25.2094 11.2868 25.6274 11.2186 25.9147H10.1564C10.0199 25.4967 9.95918 24.909 9.95918 24.2036Z" fill="#394A70"/>
<path fill-rule="evenodd" clip-rule="evenodd" d="M16.4683 29.3294C16.5979 29.7048 16.8297 29.899 17.1503 29.899C17.4777 29.899 17.7641 29.7307 18.0233 29.3682V24.8759C17.7573 24.6688 17.4777 24.5652 17.1707 24.5652C16.5706 24.5652 16.2637 25.4973 16.2637 27.3486C16.2637 28.2937 16.3251 28.9669 16.4683 29.3294ZM17.1503 34.249C17.73 34.249 18.0233 33.5758 18.0233 32.2293V31.4008C17.7027 31.7762 17.3003 31.9704 16.8161 31.9704C16.2091 31.9704 15.7385 31.6338 15.4043 30.9347C15.077 30.2356 14.9133 29.0834 14.9133 27.4652C14.9133 24.2416 15.6771 22.6362 17.198 22.6362C17.5868 22.6362 17.9551 22.8045 18.2892 23.1282C18.3506 22.9081 18.4461 22.7916 18.5825 22.7916H19.3873V32.0999C19.3873 33.4981 19.21 34.5208 18.8553 35.1811C18.5007 35.8413 17.9551 36.1779 17.2117 36.1779C16.8229 36.1779 16.4137 36.0873 15.9977 35.919C15.5817 35.7507 15.2611 35.5306 15.0497 35.2588C15.0429 35.1422 15.0429 35.0387 15.0429 34.9222C15.0429 34.2231 15.1247 33.5499 15.302 32.9155H16.1614C16.2296 33.1744 16.2841 33.5369 16.3182 33.9771C16.5638 34.1583 16.8366 34.249 17.1503 34.249Z" fill="#394A70"/>
<defs>
<linearGradient id="paint0_linear" x1="166.369" y1="25.1187" x2="166.369" y2="54.5183" gradientUnits="userSpaceOnUse">
<stop stop-color="#384D7A"/>
<stop offset="1" stop-color="#28395E"/>
</linearGradient>
<linearGradient id="paint1_linear" x1="174.615" y1="25.1188" x2="174.615" y2="54.5182" gradientUnits="userSpaceOnUse">
<stop stop-color="#384D7A"/>
<stop offset="1" stop-color="#28395E"/>
</linearGradient>
<linearGradient id="paint2_linear" x1="166.045" y1="25.1187" x2="166.045" y2="54.5183" gradientUnits="userSpaceOnUse">
<stop stop-color="#384D7A"/>
<stop offset="1" stop-color="#28395E"/>
</linearGradient>
<linearGradient id="paint3_linear" x1="165.541" y1="25.1208" x2="165.541" y2="54.5411" gradientUnits="userSpaceOnUse">
<stop stop-color="#384D7A"/>
<stop offset="1" stop-color="#28395E"/>
</linearGradient>
<linearGradient id="paint4_linear" x1="161.543" y1="25.1182" x2="161.543" y2="54.5177" gradientUnits="userSpaceOnUse">
<stop stop-color="#384D7A"/>
<stop offset="1" stop-color="#28395E"/>
</linearGradient>
<linearGradient id="paint5_linear" x1="162.137" y1="25.1188" x2="162.137" y2="54.5185" gradientUnits="userSpaceOnUse">
<stop stop-color="#384D7A"/>
<stop offset="1" stop-color="#28395E"/>
</linearGradient>
<linearGradient id="paint6_linear" x1="144.467" y1="15.1151" x2="145.683" y2="43.3301" gradientUnits="userSpaceOnUse">
<stop stop-color="#384D7A"/>
<stop offset="1" stop-color="#28395E"/>
</linearGradient>
<linearGradient id="paint7_linear" x1="144.837" y1="14.7181" x2="146.096" y2="43.4315" gradientUnits="userSpaceOnUse">
<stop stop-color="#384D7A"/>
<stop offset="1" stop-color="#28395E"/>
</linearGradient>
<linearGradient id="paint8_linear" x1="147.152" y1="14.6155" x2="148.411" y2="43.3289" gradientUnits="userSpaceOnUse">
<stop stop-color="#384D7A"/>
<stop offset="1" stop-color="#28395E"/>
</linearGradient>
<linearGradient id="paint9_linear" x1="146.707" y1="14.6359" x2="147.966" y2="43.3486" gradientUnits="userSpaceOnUse">
<stop stop-color="#384D7A"/>
<stop offset="1" stop-color="#28395E"/>
</linearGradient>
<linearGradient id="paint10_linear" x1="142.726" y1="14.8105" x2="143.985" y2="43.5231" gradientUnits="userSpaceOnUse">
<stop stop-color="#384D7A"/>
<stop offset="1" stop-color="#28395E"/>
</linearGradient>
<linearGradient id="paint11_linear" x1="142.374" y1="14.8249" x2="143.633" y2="43.5384" gradientUnits="userSpaceOnUse">
<stop stop-color="#384D7A"/>
<stop offset="1" stop-color="#28395E"/>
</linearGradient>
<linearGradient id="paint12_linear" x1="144.711" y1="14.7227" x2="145.97" y2="43.4362" gradientUnits="userSpaceOnUse">
<stop stop-color="#384D7A"/>
<stop offset="1" stop-color="#28395E"/>
</linearGradient>
</defs>
</svg>
