<svg width="188" height="27" viewBox="0 0 188 27" fill="none" xmlns="http://www.w3.org/2000/svg">
<path d="M36.9122 3.25623H29.2884V2.25781H45.675V3.25623H38.0512V25.9021H36.9122V3.25623Z" fill="white"/>
<path d="M44.5472 17.3816C44.5472 11.7882 48.111 8.35046 51.8891 8.35046C55.8025 8.35046 58.2949 11.1415 58.2949 16.2357C58.2949 16.5987 58.2948 16.9505 58.2272 17.3816H45.6863C45.6863 21.9652 48.3253 25.3349 52.3853 25.3349C54.3138 25.3349 55.8025 24.6882 57.0881 23.7579L57.5843 24.6882C56.2987 25.471 54.8777 26.3333 52.3176 26.3333C48.0321 26.3333 44.5472 22.9637 44.5472 17.3816ZM57.2235 16.3718C57.2235 11.6407 55.092 9.34888 51.8778 9.34888C48.8102 9.34888 46.0359 12.0038 45.675 16.3718H57.2235Z" fill="white"/>
<path d="M60.5842 21.7155C60.5842 17.8807 64.0803 16.0881 71.7718 15.2258C71.8395 12.4348 71.129 9.34875 67.5652 9.34875C65.1405 9.34875 63.0766 10.5627 62.0052 11.425L61.4301 10.5627C62.5015 9.77989 64.8472 8.33899 67.6328 8.33899C71.6252 8.33899 72.8319 11.3456 72.8319 14.7833V25.8907H71.9071L71.7605 23.5989H71.6928C69.911 25.0284 67.7795 26.3219 65.4901 26.3219C62.8623 26.3332 60.5842 24.9717 60.5842 21.7155ZM71.7718 22.3963V16.1561C64.2946 17.0184 61.7233 18.7316 61.7233 21.6701C61.7233 24.325 63.5052 25.3234 65.569 25.3234C67.6441 25.3348 69.4937 24.325 71.7718 22.3963Z" fill="white"/>
<path d="M77.9294 8.7816H78.8542L79.0008 11.5046H79.0685C80.6361 9.71194 82.6323 8.35046 84.4818 8.35046C87.2562 8.35046 88.6095 9.78001 89.1847 11.9357C91.1809 9.71194 93.0981 8.35046 95.0266 8.35046C98.3761 8.35046 100.079 10.4267 100.079 14.8742V25.9135H99.0189V15.0217C99.0189 11.2209 97.7333 9.36023 94.9589 9.36023C93.2447 9.36023 91.5417 10.5061 89.5456 12.798V25.9135H88.4742V15.0217C88.4742 11.2209 87.1885 9.36023 84.4142 9.36023C82.7789 9.36023 80.997 10.5061 79.0008 12.798V25.9135H77.9294V8.7816Z" fill="white"/>
<path d="M117.334 5.41181C116.623 5.10547 115.552 4.94664 114.131 4.94664C112.71 4.94664 111.56 5.57065 110.68 6.80732C109.8 8.044 109.361 10.2224 109.361 13.3311C109.361 16.4398 109.778 18.6408 110.624 19.9456C111.469 21.2503 112.721 21.897 114.379 21.897C116.917 21.897 119.195 21.5113 121.213 20.7511L122.499 23.9392C119.984 25.4482 117.029 26.197 113.635 26.197C110.24 26.197 107.793 25.2326 106.282 23.2925C104.771 21.3524 104.015 18.1983 104.015 13.7962C104.015 9.40547 104.951 6.14927 106.812 4.05033C108.673 1.95138 111.289 0.89624 114.661 0.89624C117.368 0.89624 119.939 1.64505 122.386 3.15402C122.386 3.30152 122.386 3.57381 122.386 3.98226C122.386 4.3907 122.307 5.08278 122.138 6.05851C121.969 7.03423 121.732 7.83978 121.428 8.46379H118.044C117.717 7.80574 117.481 6.79598 117.334 5.41181Z" fill="white"/>
<path d="M123.943 0.465171C125.274 0.158839 126.503 0 127.642 0C128.781 0 129.74 0.0340371 130.529 0.102111V21.9198C131.454 22.2828 132.108 22.6799 132.491 23.1338L132.13 25.8908H123.943L123.582 23.1338C123.909 22.6799 124.563 22.2715 125.544 21.9198V4.44749C124.71 4.16385 124.056 3.75541 123.582 3.23351L123.943 0.465171Z" fill="white"/>
<path d="M141.559 26.1971C138.705 26.1971 136.563 25.437 135.13 23.9053C133.698 22.3737 132.976 20.1499 132.976 17.2454C132.976 15.4755 133.224 13.9552 133.721 12.6731C134.217 11.3911 134.893 10.4153 135.751 9.71192C137.408 8.37313 139.348 7.70374 141.559 7.70374C143.769 7.70374 145.461 8.27102 146.634 9.40558C147.807 10.5401 148.393 12.571 148.393 15.5095C148.393 17.2341 147.547 18.085 145.867 18.085H138.141C138.232 19.594 138.626 20.6491 139.303 21.2731C139.98 21.8971 141.051 22.2035 142.529 22.2035C143.341 22.2035 144.107 22.1127 144.84 21.9198C145.574 21.727 146.115 21.5341 146.442 21.3412L146.938 21.0576L148.01 23.928C147.863 24.0982 147.66 24.3024 147.389 24.552C147.119 24.8016 146.431 25.142 145.325 25.5504C144.209 25.9816 142.957 26.1971 141.559 26.1971ZM143.803 14.9082C143.848 14.5792 143.871 14.1708 143.871 13.6942C143.871 13.2177 143.679 12.7072 143.295 12.1739C142.912 11.6407 142.258 11.3684 141.322 11.3684C140.386 11.3684 139.664 11.652 139.168 12.2306C138.672 12.8093 138.333 13.7737 138.175 15.1351L143.803 14.9082Z" fill="white"/>
<path d="M150.243 10.6423C150.243 10.2792 150.254 9.90479 150.276 9.49635C152.487 8.30505 154.855 7.70374 157.404 7.70374C159.941 7.70374 161.768 8.1916 162.874 9.15598C163.979 10.1204 164.532 11.7314 164.532 13.9779V21.6135C165.366 21.7837 166.02 21.9879 166.494 22.2262V25.3462C165.287 25.9248 163.55 26.2085 161.295 26.2085C161.058 25.5845 160.855 24.8357 160.686 23.9507C159.66 25.4597 157.81 26.2085 155.126 26.2085C153.536 26.2085 152.171 25.7433 151.043 24.813C149.916 23.8826 149.352 22.6119 149.352 21.0122C149.352 19.4124 149.882 18.1531 150.942 17.2341C152.002 16.3151 153.57 15.8499 155.656 15.8499H159.535V14.1254C159.535 12.2647 158.554 11.3343 156.581 11.3343C155.848 11.3343 155.239 11.4024 154.765 11.5499C154.72 12.5483 154.573 13.3312 154.336 13.8758H150.852C150.446 13.0362 150.243 11.9584 150.243 10.6423ZM156.648 22.5325C157.855 22.5325 158.825 22.1694 159.535 21.4547V18.5161H157.043C155.329 18.5161 154.483 19.1742 154.483 20.4903C154.483 21.0916 154.663 21.5795 155.036 21.9539C155.397 22.351 155.938 22.5325 156.648 22.5325Z" fill="white"/>
<path d="M167.881 7.98741C169.189 7.70377 170.362 7.55627 171.411 7.55627C172.46 7.55627 173.317 7.57897 174.016 7.62435V9.41696C174.614 8.91775 175.403 8.49796 176.384 8.18029C177.366 7.86261 178.313 7.69242 179.215 7.69242C181.538 7.69242 183.174 8.23701 184.11 9.33754C185.046 10.4381 185.519 12.3328 185.519 15.0331V21.9085C186.444 22.2716 187.098 22.6687 187.482 23.1225L187.121 25.8795H178.933L178.572 23.1225C178.899 22.6687 179.554 22.2602 180.535 21.9085V14.8175C180.535 13.5241 180.332 12.6618 179.914 12.2193C179.497 11.7769 178.753 11.5613 177.693 11.5613C176.621 11.5613 175.561 11.947 174.49 12.7072V21.9199C175.415 22.2829 176.069 22.68 176.452 23.1338L176.091 25.8908H167.904L167.543 23.1338C167.87 22.68 168.524 22.2716 169.505 21.9199V11.9584C168.67 11.6747 168.016 11.2663 167.543 10.7444L167.881 7.98741Z" fill="white"/>
<path d="M7.52228 6.20605V9.03112L6.32683 9.17861C6.07872 8.96305 5.87572 8.56595 5.72911 7.97598H3.20289V10.9372H5.44717C5.57122 10.6082 5.70656 10.3813 5.85317 10.2564L6.86817 10.3699V13.263L5.85317 13.3878C5.71783 13.2744 5.5825 13.0475 5.44717 12.7071H3.20289V15.4074C3.92467 15.5662 4.44345 15.7931 4.7705 16.0768L4.61261 17.4269H0.157889L0 16.0768C0.135333 15.8952 0.439834 15.7137 0.890945 15.5435V8.11212C0.451111 7.95328 0.157889 7.76041 0 7.55619L0.157889 6.20605H7.52228Z" fill="white"/>
<path d="M12.8905 11.289C12.0672 11.289 11.5033 11.4478 11.1988 11.7655V15.4868C12.0672 15.6457 12.6649 15.8726 12.992 16.1676L12.8341 17.4156H8.21023L8.05234 16.1676C8.19895 15.9634 8.50345 15.7818 8.94328 15.6116V11.0961C8.57112 10.9713 8.26662 10.7784 8.05234 10.5401L8.21023 9.29212C8.80795 9.16732 9.33801 9.09924 9.81167 9.09924C10.2853 9.09924 10.6801 9.11059 10.9958 9.13328V10.1544C11.244 9.8594 11.5597 9.62114 11.9545 9.42827C12.3379 9.23539 12.6988 9.14463 13.0146 9.14463C13.3303 9.14463 13.5446 9.16732 13.6687 9.22405L13.6236 11.3343C13.3867 11.3003 13.1499 11.289 12.8905 11.289Z" fill="white"/>
<path d="M14.3002 10.4947C14.3002 10.3358 14.3002 10.1543 14.3115 9.97277C15.3152 9.42818 16.3866 9.15588 17.5482 9.15588C18.6986 9.15588 19.5218 9.37145 20.0293 9.81393C20.5256 10.2564 20.7849 10.9825 20.7849 12.0036V15.4641C21.1571 15.5435 21.4616 15.6342 21.6759 15.7364V17.1546C21.1233 17.4155 20.3451 17.5403 19.3188 17.5403C19.2061 17.2567 19.1158 16.9163 19.0482 16.5192C18.5858 17.1999 17.7399 17.5403 16.5332 17.5403C15.8114 17.5403 15.1912 17.3247 14.6837 16.905C14.1762 16.4852 13.9168 15.9065 13.9168 15.1804C13.9168 14.4543 14.1536 13.887 14.6386 13.4672C15.1122 13.0474 15.834 12.8432 16.7813 12.8432H18.5407V12.0604C18.5407 11.2208 18.0896 10.7897 17.1986 10.7897C16.8603 10.7897 16.5896 10.8237 16.3753 10.8918C16.3528 11.3456 16.2851 11.6973 16.1836 11.9469H14.6047C14.3904 11.5725 14.3002 11.0846 14.3002 10.4947ZM17.2099 15.8839C17.7625 15.8839 18.1911 15.725 18.5181 15.396V14.0685H17.3903C16.6122 14.0685 16.2287 14.3635 16.2287 14.9649C16.2287 15.2371 16.3077 15.4527 16.4768 15.6342C16.646 15.8044 16.8828 15.8839 17.2099 15.8839Z" fill="white"/>
<path d="M25.6682 19.1401C26.6268 19.1401 27.1005 18.5614 27.1005 17.4042V16.6894C26.5705 17.0184 25.9051 17.1773 25.1156 17.1773C24.1006 17.1773 23.3225 16.8823 22.7811 16.281C22.2398 15.6796 21.9691 14.6926 21.9691 13.3084C21.9691 10.5401 23.2322 9.16724 25.7472 9.16724C26.39 9.16724 26.999 9.30338 27.5516 9.58702C27.6644 9.39415 27.8223 9.29204 28.0366 9.29204H29.3561V17.2907C29.3561 18.482 29.0628 19.367 28.4764 19.9343C27.89 20.5129 26.9765 20.7965 25.7585 20.7965C25.1156 20.7965 24.439 20.7171 23.751 20.5696C23.0631 20.4221 22.5443 20.2292 22.1834 20.0023C22.1721 19.9002 22.1721 19.8095 22.1721 19.7073C22.1721 19.106 22.3074 18.5387 22.5894 17.9828H24.0217C24.1457 18.2097 24.2247 18.516 24.2811 18.8905C24.6983 19.0606 25.1607 19.1401 25.6682 19.1401ZM24.5292 14.9081C24.7547 15.2372 25.1269 15.396 25.657 15.396C26.187 15.396 26.672 15.2485 27.1005 14.9422V11.0847C26.672 10.9031 26.1983 10.8124 25.6908 10.8124C24.6871 10.8124 24.1908 11.6065 24.1908 13.2063C24.2021 14.0232 24.3149 14.5905 24.5292 14.9081Z" fill="white"/>
</svg>
